<?xml version="1.0" encoding="utf-8"?>
<!-- Generator: Adobe Illustrator 25.2.1, SVG Export Plug-In . SVG Version: 6.00 Build 0)  -->
<svg version="1.1" id="Layer_1" xmlns="http://www.w3.org/2000/svg" xmlns:xlink="http://www.w3.org/1999/xlink" x="0px" y="0px"
	 viewBox="0 0 1080 1080" style="enable-background:new 0 0 1080 1080;" xml:space="preserve">
<style type="text/css">
	.st0{opacity:0.4;fill:#23A455;enable-background:new    ;}
	.st1{fill:#23A455;}
	.st2{opacity:0.5;fill:#23A455;enable-background:new    ;}
	.st3{fill:url(#SVGID_1_);}
	.st4{fill:url(#SVGID_2_);}
	.st5{fill:url(#SVGID_3_);}
	.st6{fill:url(#SVGID_4_);}
	.st7{fill:url(#SVGID_5_);}
	.st8{fill:#051367;}
	.st9{fill:url(#SVGID_6_);}
	.st10{fill:url(#SVGID_7_);}
	.st11{fill:url(#SVGID_8_);}
	.st12{fill:url(#SVGID_9_);}
	.st13{fill:url(#SVGID_10_);}
	.st14{fill:#FFFFFF;}
	.st15{fill:url(#SVGID_11_);}
	.st16{fill:url(#SVGID_12_);}
	.st17{fill:#5D8BF4;}
	.st18{opacity:0.9;fill:#5D8BF4;enable-background:new    ;}
	.st19{opacity:0.7;fill:#5D8BF4;enable-background:new    ;}
	.st20{opacity:0.6;fill:#5D8BF4;enable-background:new    ;}
	.st21{opacity:0.3;fill:#5D8BF4;enable-background:new    ;}
	.st22{opacity:0.2;fill:#5D8BF4;enable-background:new    ;}
	.st23{fill:url(#SVGID_13_);}
	.st24{fill:#051556;}
	.st25{fill:url(#SVGID_14_);}
	.st26{fill:url(#SVGID_15_);}
	.st27{fill:url(#SVGID_16_);}
	.st28{fill:url(#SVGID_17_);}
	.st29{fill:url(#SVGID_18_);}
	.st30{opacity:0.52;fill:url(#SVGID_19_);enable-background:new    ;}
	.st31{fill:url(#SVGID_20_);}
	.st32{fill:url(#SVGID_21_);}
	.st33{fill:url(#SVGID_22_);}
	.st34{fill:url(#SVGID_23_);}
	.st35{fill:url(#SVGID_24_);}
	.st36{opacity:0.52;fill:url(#SVGID_25_);enable-background:new    ;}
</style>
<g>
	<g>
		<path class="st0" d="M884.4,233.9l-2.1-1.2c-7.6-4.4-13.9-16.3-13.9-26.5V171c0-10.2,6.2-14.9,13.9-10.5l2.1,1.2
			c7.6,4.4,13.9,16.3,13.9,26.5v35.2C898.2,233.5,892,238.3,884.4,233.9z"/>
		<path class="st1" d="M884.4,337.6l-2.1-1.2c-7.6-4.4-13.9-16.3-13.9-26.5v-35.2c0-10.2,6.2-14.9,13.9-10.5l2.1,1.2
			c7.6,4.4,13.9,16.3,13.9,26.5v35.2C898.2,337.3,892,342,884.4,337.6z"/>
		<path class="st0" d="M884.4,441.3l-2.1-1.2c-7.6-4.4-13.9-16.3-13.9-26.5v-35.2c0-10.2,6.2-14.9,13.9-10.5l2.1,1.2
			c7.6,4.4,13.9,16.3,13.9,26.5v35.2C898.2,441,892,445.7,884.4,441.3z"/>
		<path class="st1" d="M884.4,545.1l-2.1-1.2c-7.6-4.4-13.9-16.3-13.9-26.5v-35.2c0-10.2,6.2-14.9,13.9-10.5l2.1,1.2
			c7.6,4.4,13.9,16.3,13.9,26.5v35.2C898.2,544.8,892,549.5,884.4,545.1z"/>
		<path class="st1" d="M884.4,752.6l-2.1-1.2c-7.6-4.4-13.9-16.3-13.9-26.5v-35.2c0-10.2,6.2-14.9,13.9-10.5l2.1,1.2
			c7.6,4.4,13.9,16.3,13.9,26.5v35.2C898.2,752.2,892,757,884.4,752.6z"/>
		<path class="st1" d="M884.4,856.3l-2.1-1.2c-7.6-4.4-13.9-16.3-13.9-26.5v-35.2c0-10.2,6.2-14.9,13.9-10.5l2.1,1.2
			c7.6,4.4,13.9,16.3,13.9,26.5v35.2C898.2,856,892,860.7,884.4,856.3z"/>
		<path class="st1" d="M884.4,960l-2.1-1.2c-7.6-4.4-13.9-16.3-13.9-26.5v-35.2c0-10.2,6.2-14.9,13.9-10.5l2.1,1.2
			c7.6,4.4,13.9,16.3,13.9,26.5v35.2C898.2,959.7,892,964.4,884.4,960z"/>
		<path class="st1" d="M884.4,1063.8l-2.1-1.2c-7.6-4.4-13.9-16.3-13.9-26.5v-35.2c0-10.2,6.2-14.9,13.9-10.5l2.1,1.2
			c7.6,4.4,13.9,16.3,13.9,26.5v35.2C898.2,1063.5,892,1068.2,884.4,1063.8z"/>
		<path class="st2" d="M817.5,195.2l-2.1-1.2c-7.6-4.4-13.9-16.3-13.9-26.5v-35.2c0-10.2,6.2-14.9,13.9-10.5l2.1,1.2
			c7.6,4.4,13.9,16.3,13.9,26.5v35.2C831.3,194.9,825.1,199.6,817.5,195.2z"/>
		<path class="st1" d="M817.5,299l-2.1-1.2c-7.6-4.4-13.9-16.3-13.9-26.5v-35.2c0-10.2,6.2-14.9,13.9-10.5l2.1,1.2
			c7.6,4.4,13.9,16.3,13.9,26.5v35.2C831.3,298.7,825.1,303.4,817.5,299z"/>
		<path class="st1" d="M817.5,402.7l-2.1-1.2c-7.6-4.4-13.9-16.3-13.9-26.5v-35.2c0-10.2,6.2-14.9,13.9-10.5l2.1,1.2
			c7.6,4.4,13.9,16.3,13.9,26.5v35.2C831.3,402.4,825.1,407.1,817.5,402.7z"/>
		<path class="st1" d="M817.5,610.2l-2.1-1.2c-7.6-4.4-13.9-16.3-13.9-26.5v-35.2c0-10.2,6.2-14.9,13.9-10.5l2.1,1.2
			c7.6,4.4,13.9,16.3,13.9,26.5v35.2C831.3,609.9,825.1,614.6,817.5,610.2z"/>
		<path class="st2" d="M817.5,713.9l-2.1-1.2c-7.6-4.4-13.9-16.3-13.9-26.5V651c0-10.2,6.2-14.9,13.9-10.5l2.1,1.2
			c7.6,4.4,13.9,16.3,13.9,26.5v35.2C831.3,713.6,825.1,718.3,817.5,713.9z"/>
		<path class="st1" d="M817.5,817.7l-2.1-1.2c-7.6-4.4-13.9-16.3-13.9-26.5v-35.2c0-10.2,6.2-14.9,13.9-10.5l2.1,1.2
			c7.6,4.4,13.9,16.3,13.9,26.5v35.2C831.3,817.4,825.1,822.1,817.5,817.7z"/>
		<path class="st2" d="M817.5,1025.1l-2.1-1.2c-7.6-4.4-13.9-16.3-13.9-26.5v-35.2c0-10.2,6.2-14.9,13.9-10.5l2.1,1.2
			c7.6,4.4,13.9,16.3,13.9,26.5v35.2C831.3,1024.8,825.1,1029.5,817.5,1025.1z"/>
		<path class="st1" d="M750.6,260.3l-2.1-1.2c-7.6-4.4-13.9-16.3-13.9-26.5v-35.2c0-10.2,6.2-14.9,13.9-10.5l2.1,1.2
			c7.6,4.4,13.9,16.3,13.9,26.5v35.2C764.4,260,758.2,264.7,750.6,260.3z"/>
		<path class="st2" d="M750.6,364.1l-2.1-1.2c-7.6-4.4-13.9-16.3-13.9-26.5v-35.2c0-10.2,6.2-14.9,13.9-10.5l2.1,1.2
			c7.6,4.4,13.9,16.3,13.9,26.5v35.2C764.4,363.8,758.2,368.5,750.6,364.1z"/>
		<path class="st1" d="M750.6,467.8l-2.1-1.2c-7.6-4.4-13.9-16.3-13.9-26.5V405c0-10.2,6.2-14.9,13.9-10.5l2.1,1.2
			c7.6,4.4,13.9,16.3,13.9,26.5v35.2C764.4,467.5,758.2,472.2,750.6,467.8z"/>
		<path class="st2" d="M750.6,571.6l-2.1-1.2c-7.6-4.4-13.9-16.3-13.9-26.5v-35.2c0-10.2,6.2-14.9,13.9-10.5l2.1,1.2
			c7.6,4.4,13.9,16.3,13.9,26.5v35.2C764.4,571.2,758.2,576,750.6,571.6z"/>
		<path class="st1" d="M750.6,675.3l-2.1-1.2c-7.6-4.4-13.9-16.3-13.9-26.5v-35.2c0-10.2,6.2-14.9,13.9-10.5l2.1,1.2
			c7.6,4.4,13.9,16.3,13.9,26.5v35.2C764.4,675,758.2,679.7,750.6,675.3z"/>
		<path class="st0" d="M750.6,779l-2.1-1.2c-7.6-4.4-13.9-16.3-13.9-26.5v-35.2c0-10.2,6.2-14.9,13.9-10.5l2.1,1.2
			c7.6,4.4,13.9,16.3,13.9,26.5v35.2C764.4,778.7,758.2,783.4,750.6,779z"/>
		<path class="st2" d="M750.6,882.8l-2.1-1.2c-7.6-4.4-13.9-16.3-13.9-26.5V820c0-10.2,6.2-14.9,13.9-10.5l2.1,1.2
			c7.6,4.4,13.9,16.3,13.9,26.5v35.2C764.4,882.5,758.2,887.2,750.6,882.8z"/>
		<path class="st2" d="M750.6,986.5l-2.1-1.2c-7.6-4.4-13.9-16.3-13.9-26.5v-35.2c0-10.2,6.2-14.9,13.9-10.5l2.1,1.2
			c7.6,4.4,13.9,16.3,13.9,26.5V976C764.4,986.2,758.2,990.9,750.6,986.5z"/>
		<path class="st1" d="M683.7,118l-2.1-1.2c-7.6-4.4-13.9-16.3-13.9-26.5V55.2c0-10.2,6.2-14.9,13.9-10.5l2.1,1.2
			c7.6,4.4,13.9,16.3,13.9,26.5v35.2C697.5,117.7,691.3,122.4,683.7,118z"/>
		<path class="st2" d="M683.7,221.7l-2.1-1.2c-7.6-4.4-13.9-16.3-13.9-26.5v-35.2c0-10.2,6.2-14.9,13.9-10.5l2.1,1.2
			c7.6,4.4,13.9,16.3,13.9,26.5v35.2C697.5,221.4,691.3,226.1,683.7,221.7z"/>
		<path class="st2" d="M683.7,325.5l-2.1-1.2c-7.6-4.4-13.9-16.3-13.9-26.5v-35.2c0-10.2,6.2-14.9,13.9-10.5l2.1,1.2
			c7.6,4.4,13.9,16.3,13.9,26.5V315C697.5,325.1,691.3,329.9,683.7,325.5z"/>
		<path class="st1" d="M683.7,429.2l-2.1-1.2c-7.6-4.4-13.9-16.3-13.9-26.5v-35.2c0-10.2,6.2-14.9,13.9-10.5l2.1,1.2
			c7.6,4.4,13.9,16.3,13.9,26.5v35.2C697.5,428.9,691.3,433.6,683.7,429.2z"/>
		<path class="st1" d="M683.7,532.9l-2.1-1.2c-7.6-4.4-13.9-16.3-13.9-26.5V470c0-10.2,6.2-14.9,13.9-10.5l2.1,1.2
			c7.6,4.4,13.9,16.3,13.9,26.5v35.2C697.5,532.6,691.3,537.3,683.7,532.9z"/>
		<path class="st2" d="M683.7,636.7l-2.1-1.2c-7.6-4.4-13.9-16.3-13.9-26.5v-35.2c0-10.2,6.2-14.9,13.9-10.5l2.1,1.2
			c7.6,4.4,13.9,16.3,13.9,26.5v35.2C697.5,636.4,691.3,641.1,683.7,636.7z"/>
		<path class="st1" d="M683.7,740.4l-2.1-1.2c-7.6-4.4-13.9-16.3-13.9-26.5v-35.2c0-10.2,6.2-14.9,13.9-10.5l2.1,1.2
			c7.6,4.4,13.9,16.3,13.9,26.5v35.2C697.5,740.1,691.3,744.8,683.7,740.4z"/>
		<path class="st1" d="M683.7,844.2l-2.1-1.2c-7.6-4.4-13.9-16.3-13.9-26.5v-35.2c0-10.2,6.2-14.9,13.9-10.5l2.1,1.2
			c7.6,4.4,13.9,16.3,13.9,26.5v35.2C697.5,843.8,691.3,848.5,683.7,844.2z"/>
		<path class="st1" d="M683.7,947.9l-2.1-1.2c-7.6-4.4-13.9-16.3-13.9-26.5V885c0-10.2,6.2-14.9,13.9-10.5l2.1,1.2
			c7.6,4.4,13.9,16.3,13.9,26.5v35.2C697.5,947.6,691.3,952.3,683.7,947.9z"/>
		<path class="st1" d="M616.8,79.4l-2.1-1.2c-7.6-4.4-13.9-16.3-13.9-26.5V16.5c0-10.2,6.2-14.9,13.9-10.5l2.1,1.2
			c7.6,4.4,13.9,16.3,13.9,26.5v35.2C630.6,79,624.4,83.8,616.8,79.4z"/>
		<path class="st1" d="M616.8,183.1l-2.1-1.2c-7.6-4.4-13.9-16.3-13.9-26.5v-35.2c0-10.2,6.2-14.9,13.9-10.5l2.1,1.2
			c7.6,4.4,13.9,16.3,13.9,26.5v35.2C630.6,182.8,624.4,187.5,616.8,183.1z"/>
		<path class="st2" d="M616.8,286.8l-2.1-1.2c-7.6-4.4-13.9-16.3-13.9-26.5V224c0-10.2,6.2-14.9,13.9-10.5l2.1,1.2
			c7.6,4.4,13.9,16.3,13.9,26.5v35.2C630.6,286.5,624.4,291.2,616.8,286.8z"/>
		<path class="st0" d="M616.8,390.6l-2.1-1.2c-7.6-4.4-13.9-16.3-13.9-26.5v-35.2c0-10.2,6.2-14.9,13.9-10.5l2.1,1.2
			c7.6,4.4,13.9,16.3,13.9,26.5v35.2C630.6,390.3,624.4,395,616.8,390.6z"/>
		<path class="st2" d="M616.8,494.3l-2.1-1.2c-7.6-4.4-13.9-16.3-13.9-26.5v-35.2c0-10.2,6.2-14.9,13.9-10.5l2.1,1.2
			c7.6,4.4,13.9,16.3,13.9,26.5v35.2C630.6,494,624.4,498.7,616.8,494.3z"/>
		<path class="st1" d="M616.8,598l-2.1-1.2c-7.6-4.4-13.9-16.3-13.9-26.5v-35.2c0-10.2,6.2-14.9,13.9-10.5l2.1,1.2
			c7.6,4.4,13.9,16.3,13.9,26.5v35.2C630.6,597.7,624.4,602.4,616.8,598z"/>
		<path class="st1" d="M616.8,701.8l-2.1-1.2c-7.6-4.4-13.9-16.3-13.9-26.5V639c0-10.2,6.2-14.9,13.9-10.5l2.1,1.2
			c7.6,4.4,13.9,16.3,13.9,26.5v35.2C630.6,701.5,624.4,706.2,616.8,701.8z"/>
		<path class="st1" d="M616.8,805.5l-2.1-1.2c-7.6-4.4-13.9-16.3-13.9-26.5v-35.2c0-10.2,6.2-14.9,13.9-10.5l2.1,1.2
			c7.6,4.4,13.9,16.3,13.9,26.5V795C630.6,805.2,624.4,809.9,616.8,805.5z"/>
		<path class="st1" d="M616.8,909.3l-2.1-1.2c-7.6-4.4-13.9-16.3-13.9-26.5v-35.2c0-10.2,6.2-14.9,13.9-10.5l2.1,1.2
			c7.6,4.4,13.9,16.3,13.9,26.5v35.2C630.6,908.9,624.4,913.7,616.8,909.3z"/>
	</g>
	
		<linearGradient id="SVGID_1_" gradientUnits="userSpaceOnUse" x1="341.9753" y1="-819.9852" x2="341.9753" y2="-232.8419" gradientTransform="matrix(0.866 0.5 0 -1.1547 335.0994 -293.0874)">
		<stop  offset="0" style="stop-color:#2D0979"/>
		<stop  offset="1" style="stop-color:#5B04F7"/>
	</linearGradient>
	<path class="st3" d="M762.6,900.5L499.9,748.9c-10.2-5.9-18.5-21.7-18.5-35.3V85c0-13.6,8.3-19.9,18.5-14l262.7,151.6
		c10.2,5.9,18.5,21.7,18.5,35.3v628.5C781.1,900.2,772.8,906.4,762.6,900.5z"/>
	
		<linearGradient id="SVGID_2_" gradientUnits="userSpaceOnUse" x1="729.7704" y1="463.8571" x2="71.3322" y2="583.9977" gradientTransform="matrix(1 0 0 -1 0 1080)">
		<stop  offset="0" style="stop-color:#051367"/>
		<stop  offset="1" style="stop-color:#2D31FA"/>
	</linearGradient>
	<path class="st4" d="M762.6,222.6L499.9,71c-4.6-2.6-8.7-2.8-12-1l0,0L188.1,243l14.1,52.3L475.6,1074l298.7-172.3
		c0.1,0,0.1-0.1,0.1-0.1l0.5-0.3l0,0c3.7-2.4,6.1-7.5,6.1-14.7V258C781.1,244.4,772.8,228.5,762.6,222.6z"/>
	
		<radialGradient id="SVGID_3_" cx="282.4898" cy="1005.7272" r="767.1173" gradientTransform="matrix(1 0 0 -1 0 1080)" gradientUnits="userSpaceOnUse">
		<stop  offset="0" style="stop-color:#DFF6FF"/>
		<stop  offset="0.4742" style="stop-color:#5D8BF4"/>
		<stop  offset="0.6208" style="stop-color:#4055F8"/>
		<stop  offset="0.7299" style="stop-color:#2D31FA"/>
		<stop  offset="1" style="stop-color:#051367"/>
	</radialGradient>
	<path class="st5" d="M762.6,222.6L499.9,71c-4.6-2.6-8.7-2.8-12-1l0,0L188.1,243l14.1,52.3l75.2,214.1l14.2,8.2L775.9,238
		C772.5,231.3,767.8,225.7,762.6,222.6z"/>
	
		<radialGradient id="SVGID_4_" cx="-196.3628" cy="-498.4783" r="681.0399" gradientTransform="matrix(0.866 0.5 0 -1.1547 335.0994 -293.0874)" gradientUnits="userSpaceOnUse">
		<stop  offset="0" style="stop-color:#DFF6FF"/>
		<stop  offset="0.4742" style="stop-color:#5D8BF4"/>
		<stop  offset="0.6208" style="stop-color:#4055F8"/>
		<stop  offset="0.7299" style="stop-color:#2D31FA"/>
		<stop  offset="1" style="stop-color:#051367"/>
	</radialGradient>
	<path class="st6" d="M462.9,1073.4L200.2,921.7c-10.2-5.9-18.5-21.7-18.5-35.3V257.8c0-13.6,8.3-19.9,18.5-14l262.7,151.6
		c10.2,5.9,18.5,21.7,18.5,35.3v628.5C481.4,1073,473.1,1079.3,462.9,1073.4z"/>
	
		<linearGradient id="SVGID_5_" gradientUnits="userSpaceOnUse" x1="-166.9994" y1="-860.441" x2="128.0002" y2="-793.5936" gradientTransform="matrix(0.866 0.5 0 -1.1547 335.0994 -293.0874)">
		<stop  offset="0" style="stop-color:#3919BB"/>
		<stop  offset="1" style="stop-color:#6507FA"/>
	</linearGradient>
	<path class="st7" d="M446.4,1035.5L216.8,903c-8.9-5.2-16.2-19-16.2-30.9V288.3c0-11.9,7.2-17.4,16.2-12.2l229.6,132.6
		c8.9,5.2,16.2,19,16.2,30.9v583.7C462.6,1035.2,455.3,1040.7,446.4,1035.5z"/>
	<path class="st8" d="M446.4,1035.5L216.8,903c-8.9-5.2-16.2-19-16.2-30.9V288.3c0-11.9,7.2-17.4,16.2-12.2l229.6,132.6
		c8.9,5.2,16.2,19,16.2,30.9v583.7C462.6,1035.2,455.3,1040.7,446.4,1035.5z"/>
	
		<linearGradient id="SVGID_6_" gradientUnits="userSpaceOnUse" x1="330.4" y1="42.4557" x2="330.4" y2="805.8" gradientTransform="matrix(1 0 0 -1 0 1080)">
		<stop  offset="0" style="stop-color:#5D8BF4"/>
		<stop  offset="7.474601e-03" style="stop-color:#5A86F4"/>
		<stop  offset="8.026138e-02" style="stop-color:#4258F7"/>
		<stop  offset="0.1364" style="stop-color:#333CF9"/>
		<stop  offset="0.1687" style="stop-color:#2D31FA"/>
		<stop  offset="0.1912" style="stop-color:#292EEC"/>
		<stop  offset="0.2591" style="stop-color:#2027C9"/>
		<stop  offset="0.3336" style="stop-color:#1721AA"/>
		<stop  offset="0.4148" style="stop-color:#111C92"/>
		<stop  offset="0.5054" style="stop-color:#0B187F"/>
		<stop  offset="0.6109" style="stop-color:#081571"/>
		<stop  offset="0.7445" style="stop-color:#061369"/>
		<stop  offset="1" style="stop-color:#051367"/>
	</linearGradient>
	<path class="st9" d="M453.9,1031.1L224.3,898.6c-8.9-5.2-16.2-19-16.2-30.9V283.9c0-4.1,0.9-7.3,2.3-9.7c-5.8,0-9.8,5.3-9.8,14.2
		v583.7c0,11.9,7.2,25.7,16.2,30.9l229.6,132.6c5.9,3.4,11,2.2,13.8-2.5C458.3,1033,456.1,1032.4,453.9,1031.1z"/>
	
		<radialGradient id="SVGID_7_" cx="-148.4222" cy="-328.192" r="344.3834" gradientTransform="matrix(0.866 0.5 0.866 -0.5 897.8539 142.4618)" gradientUnits="userSpaceOnUse">
		<stop  offset="0" style="stop-color:#DFF6FF"/>
		<stop  offset="0.4742" style="stop-color:#5D8BF4"/>
		<stop  offset="0.6208" style="stop-color:#4055F8"/>
		<stop  offset="0.7299" style="stop-color:#2D31FA"/>
		<stop  offset="1" style="stop-color:#051367"/>
	</radialGradient>
	<path class="st10" d="M462.6,367.9L250.7,245.6c-7.8-4.5-6.8-12.3,2.2-17.5l224.5-130c9-5.2,22.5-5.7,30.3-1.3l211.8,122.3
		c7.8,4.5,6.8,12.3-2.2,17.5l-224.5,130C483.9,371.8,470.3,372.4,462.6,367.9z"/>
	
		<linearGradient id="SVGID_8_" gradientUnits="userSpaceOnUse" x1="245.5642" y1="911.7612" x2="724.662" y2="911.7612" gradientTransform="matrix(1 0 0 -1 0 1080)">
		<stop  offset="0" style="stop-color:#051367"/>
		<stop  offset="1" style="stop-color:#2D31FA"/>
	</linearGradient>
	<path class="st11" d="M252.9,237.4l224.5-130c9-5.2,22.5-5.7,30.3-1.3l211.8,122.3c1.6,0.9,2.7,2,3.5,3.1c3-4.4,2-9.2-3.5-12.4
		L507.7,96.9c-7.8-4.5-21.3-3.9-30.3,1.3l-224.5,130c-7.2,4.1-9.1,9.9-5.7,14.4C248.4,240.7,250.3,238.9,252.9,237.4z"/>
	
		<linearGradient id="SVGID_9_" gradientUnits="userSpaceOnUse" x1="299.3" y1="839.35" x2="671.0001" y2="839.35" gradientTransform="matrix(1 0 0 -1 0 1080)">
		<stop  offset="0" style="stop-color:#051367"/>
		<stop  offset="1" style="stop-color:#2D31FA"/>
	</linearGradient>
	<path class="st12" d="M671,203.6l-62.3,1.4l-106-61.2c-6-3.5-16.5-3-23.5,1l-113.7,65.8l-66.2,1.5v24.6h0.1c0,2.2,1.2,4.4,4,6
		l164.3,94.8c6,3.5,16.5,3,23.5-1l174.1-100.8c3.6-2.1,5.5-4.7,5.7-7.2l0,0L671,203.6L671,203.6z"/>
	
		<radialGradient id="SVGID_10_" cx="-272.1475" cy="-419.2943" r="514.9313" gradientTransform="matrix(0.866 0.5 0.866 -0.5 897.8539 142.4618)" gradientUnits="userSpaceOnUse">
		<stop  offset="0" style="stop-color:#DFF6FF"/>
		<stop  offset="0.4742" style="stop-color:#5D8BF4"/>
		<stop  offset="0.6208" style="stop-color:#4055F8"/>
		<stop  offset="0.7299" style="stop-color:#2D31FA"/>
		<stop  offset="1" style="stop-color:#051367"/>
	</radialGradient>
	<path class="st13" d="M467.6,312.7l-164.3-94.8c-6-3.5-5.3-9.5,1.7-13.6l174.1-100.8c7-4,17.5-4.4,23.5-1l164.3,94.8
		c6,3.5,5.3,9.5-1.7,13.6L491.1,311.7C484.2,315.7,473.7,316.2,467.6,312.7z"/>
	<path class="st14" d="M665.2,207.3L491.1,308.1c-7,4-17.5,4.4-23.5,1l-164.3-94.8c-2-1.1-3.1-2.6-3.7-4.1c-0.9,2.9,0.2,5.7,3.7,7.7
		l164.3,94.8c6,3.5,16.5,3,23.5-1L665.2,211c4.7-2.7,6.5-6.3,5.4-9.5C669.9,203.6,668.2,205.6,665.2,207.3z"/>
	
		<linearGradient id="SVGID_11_" gradientUnits="userSpaceOnUse" x1="299.3" y1="895.35" x2="671.0001" y2="895.35" gradientTransform="matrix(1 0 0 -1 0 1080)">
		<stop  offset="0" style="stop-color:#051367"/>
		<stop  offset="1" style="stop-color:#2D31FA"/>
	</linearGradient>
	<path class="st15" d="M671,147.6l-62.3,1.4l-106-61.2c-6-3.5-16.5-3-23.5,1l-113.7,65.8l-66.2,1.5v24.6h0.1c0,2.2,1.2,4.4,4,6
		l164.3,94.8c6,3.5,16.5,3,23.5-1l174.1-100.8c3.6-2.1,5.5-4.7,5.7-7.2l0,0L671,147.6L671,147.6z"/>
	<path class="st14" d="M665.2,151.4L491.1,252.2c-7,4-17.5,4.4-23.5,1l-164.3-94.8c-2-1.1-3.1-2.6-3.7-4.1c-0.9,2.9,0.2,5.7,3.7,7.7
		l164.3,94.8c6,3.5,16.5,3,23.5-1L665.2,155c4.7-2.7,6.5-6.3,5.4-9.5C669.9,147.6,668.2,149.7,665.2,151.4z"/>
	<path class="st8" d="M734.5,863.2L551,969.1c-5.9,3.4-10.8-0.2-10.8-8.1V457c0-7.9,4.8-17.1,10.8-20.6l183.4-105.9
		c5.9-3.4,10.8,0.2,10.8,8.1v504C745.2,850.6,740.4,859.8,734.5,863.2z"/>
	
		<linearGradient id="SVGID_12_" gradientUnits="userSpaceOnUse" x1="652.0018" y1="430.1787" x2="857.0018" y2="430.1787" gradientTransform="matrix(1 0 0 -1 0 1080)">
		<stop  offset="0" style="stop-color:#051367"/>
		<stop  offset="1" style="stop-color:#2D31FA"/>
	</linearGradient>
	<path class="st16" d="M734.5,330.5l-2.8,1.6v503c0,7.9-4.8,17.1-10.8,20.6L540.3,960v1c0,7.9,4.8,11.6,10.8,8.1l183.4-105.9
		c5.9-3.4,10.8-12.6,10.8-20.6v-504C745.2,330.7,740.4,327.1,734.5,330.5z"/>
	<g>
		<path class="st17" d="M384.4,854.7l-100.2-57.9c-6.2-3.6-11.2-13.2-11.2-21.4l0,0c0-8.2,5-12,11.2-8.5l100.2,57.9
			c6.2,3.6,11.2,13.2,11.2,21.4l0,0C395.6,854.5,390.6,858.3,384.4,854.7z"/>
		<path class="st18" d="M384.4,798.3l-100.2-57.9C278,736.8,273,727.2,273,719l0,0c0-8.2,5-12,11.2-8.5l100.2,57.9
			c6.2,3.6,11.2,13.2,11.2,21.4l0,0C395.6,798.1,390.6,801.9,384.4,798.3z"/>
		<path class="st19" d="M384.4,741.9L284.2,684c-6.2-3.6-11.2-13.2-11.2-21.4l0,0c0-8.2,5-12,11.2-8.5L384.4,712
			c6.2,3.6,11.2,13.2,11.2,21.4l0,0C395.6,741.7,390.6,745.5,384.4,741.9z"/>
		<path class="st20" d="M384.4,685.5l-100.2-57.9C278,624,273,614.4,273,606.2l0,0c0-8.2,5-12,11.2-8.5l100.2,57.9
			c6.2,3.6,11.2,13.2,11.2,21.4l0,0C395.6,685.3,390.6,689.1,384.4,685.5z"/>
		<path class="st21" d="M384.4,629.1l-100.2-57.9C278,567.6,273,558,273,549.8l0,0c0-8.2,5-12,11.2-8.5l100.2,57.9
			c6.2,3.6,11.2,13.2,11.2,21.4l0,0C395.6,628.9,390.6,632.7,384.4,629.1z"/>
		<path class="st22" d="M384.4,572.7l-100.2-57.9c-6.2-3.6-11.2-13.2-11.2-21.4l0,0c0-8.2,5-12,11.2-8.5l100.2,57.9
			c6.2,3.6,11.2,13.2,11.2,21.4l0,0C395.6,572.5,390.6,576.3,384.4,572.7z"/>
	</g>
	
		<radialGradient id="SVGID_13_" cx="-342.4827" cy="-352.8248" r="507.3024" gradientTransform="matrix(0.866 0.5 0.866 -0.5 897.8539 142.4618)" gradientUnits="userSpaceOnUse">
		<stop  offset="0" style="stop-color:#DFF6FF"/>
		<stop  offset="0.4742" style="stop-color:#5D8BF4"/>
		<stop  offset="0.6208" style="stop-color:#4055F8"/>
		<stop  offset="0.7299" style="stop-color:#2D31FA"/>
		<stop  offset="1" style="stop-color:#051367"/>
	</radialGradient>
	<path class="st23" d="M467.6,253.3l-164.3-94.8c-6-3.5-5.3-9.5,1.7-13.6L479.2,44.1c7-4,17.5-4.4,23.5-1L666.9,138
		c6,3.5,5.3,9.5-1.7,13.6L491.1,252.3C484.2,256.3,473.7,256.7,467.6,253.3z"/>
	<g>
		<path class="st24" d="M696.2,494.7c0,35.2-24.7,77.9-55.1,95.5c-30.4,17.6-55.1,3.3-55.1-31.8c0-35.2,24.7-77.9,55.1-95.5
			C671.5,445.3,696.2,459.5,696.2,494.7z"/>
		
			<radialGradient id="SVGID_14_" cx="609.999" cy="520.5374" r="141.8785" gradientTransform="matrix(1 0 0 -1 0 1080)" gradientUnits="userSpaceOnUse">
			<stop  offset="0" style="stop-color:#DFF6FF"/>
			<stop  offset="0.4742" style="stop-color:#5D8BF4"/>
			<stop  offset="0.6208" style="stop-color:#4055F8"/>
			<stop  offset="0.7299" style="stop-color:#2D31FA"/>
			<stop  offset="1" style="stop-color:#051367"/>
		</radialGradient>
		<path class="st25" d="M646.7,591.6l19.3-32c6.6-7.6,12.1-16.7,15.8-26.2l21.3-35.2l-26.3-15.1l0,0c-7-4.6-17-4.3-28.1,2.1
			c-21.3,12.3-38.6,42.2-38.6,66.9c0,12.1,4.2,20.7,11,24.8l0,0l0.2,0.1c0.1,0,0.1,0.1,0.2,0.1L646.7,591.6z"/>
		
			<linearGradient id="SVGID_15_" gradientUnits="userSpaceOnUse" x1="636.0001" y1="535.4" x2="713.2" y2="535.4" gradientTransform="matrix(1 0 0 -1 0 1080)">
			<stop  offset="0" style="stop-color:#051367"/>
			<stop  offset="1" style="stop-color:#2D31FA"/>
		</linearGradient>
		<path class="st26" d="M713.2,522.3c0,24.6-17.3,54.6-38.6,66.9c-21.3,12.3-38.6,2.3-38.6-22.3s17.3-54.6,38.6-66.9
			S713.2,497.7,713.2,522.3z"/>
		
			<radialGradient id="SVGID_16_" cx="674.6" cy="535.35" r="53.2093" gradientTransform="matrix(1 0 0 -1 0 1080)" gradientUnits="userSpaceOnUse">
			<stop  offset="0" style="stop-color:#DFF6FF"/>
			<stop  offset="0.4742" style="stop-color:#5D8BF4"/>
			<stop  offset="0.6208" style="stop-color:#4055F8"/>
			<stop  offset="0.7299" style="stop-color:#2D31FA"/>
			<stop  offset="1" style="stop-color:#051367"/>
		</radialGradient>
		<path class="st27" d="M700,530c0,16.2-11.4,35.9-25.4,44s-25.4,1.5-25.4-14.7s11.4-35.9,25.4-44S700,513.8,700,530z"/>
		
			<radialGradient id="SVGID_17_" cx="681.6042" cy="532.7172" r="77.1564" gradientTransform="matrix(1 0 0 -1 0 1080)" gradientUnits="userSpaceOnUse">
			<stop  offset="0" style="stop-color:#DFF6FF"/>
			<stop  offset="0.4742" style="stop-color:#5D8BF4"/>
			<stop  offset="0.6208" style="stop-color:#4055F8"/>
			<stop  offset="0.7299" style="stop-color:#2D31FA"/>
			<stop  offset="1" style="stop-color:#051367"/>
		</radialGradient>
		<path class="st28" d="M685.7,511.9c2.1,3.1,3.4,7.3,3.4,12.6c0,16.2-11.4,35.9-25.4,44c-4,2.3-7.7,3.4-11.1,3.4
			c4.4,6.2,12.6,7.4,22,2c14-8.1,25.4-27.8,25.4-44C700,518.4,694.1,511.8,685.7,511.9z"/>
		
			<radialGradient id="SVGID_18_" cx="724.1377" cy="506.9" r="98.7561" gradientTransform="matrix(1 0 0 -1 0 1080)" gradientUnits="userSpaceOnUse">
			<stop  offset="0" style="stop-color:#DFF6FF"/>
			<stop  offset="0.4742" style="stop-color:#5D8BF4"/>
			<stop  offset="0.6208" style="stop-color:#4055F8"/>
			<stop  offset="0.7299" style="stop-color:#2D31FA"/>
			<stop  offset="1" style="stop-color:#051367"/>
		</radialGradient>
		<path class="st29" d="M749.6,573.1c0,14-11.4,25.4-25.4,25.4s-25.4-11.4-25.4-25.4s11.4-25.4,25.4-25.4
			C738.2,547.7,749.6,559.1,749.6,573.1z"/>
		
			<radialGradient id="SVGID_19_" cx="639.3573" cy="507.6549" r="144.5259" gradientTransform="matrix(0.8101 0.4677 0.5 -0.866 -87.4819 690.8202)" gradientUnits="userSpaceOnUse">
			<stop  offset="0" style="stop-color:#DFF6FF"/>
			<stop  offset="0.4742" style="stop-color:#5D8BF4"/>
			<stop  offset="0.6208" style="stop-color:#4055F8"/>
			<stop  offset="0.7299" style="stop-color:#2D31FA"/>
			<stop  offset="1" style="stop-color:#051367"/>
		</radialGradient>
		<path class="st30" d="M714,608.5l-39.2-22.6c-14.1-8.1-18.9-26.2-10.8-40.3l6.3-10.9c8.1-14.1,26.2-18.9,40.3-10.8l39.2,22.6
			c14.1,8.1,18.9,26.2,10.8,40.3l-6.3,10.9C746.1,611.8,728.1,616.7,714,608.5z"/>
	</g>
	<g>
		<path class="st24" d="M696.2,732.4c0,35.2-24.7,77.9-55.1,95.5c-30.4,17.6-55.1,3.3-55.1-31.8c0-35.2,24.7-77.9,55.1-95.5
			C671.5,683,696.2,697.3,696.2,732.4z"/>
		
			<radialGradient id="SVGID_20_" cx="609.999" cy="282.8154" r="141.8785" gradientTransform="matrix(1 0 0 -1 0 1080)" gradientUnits="userSpaceOnUse">
			<stop  offset="0" style="stop-color:#DFF6FF"/>
			<stop  offset="0.4742" style="stop-color:#5D8BF4"/>
			<stop  offset="0.6208" style="stop-color:#4055F8"/>
			<stop  offset="0.7299" style="stop-color:#2D31FA"/>
			<stop  offset="1" style="stop-color:#051367"/>
		</radialGradient>
		<path class="st31" d="M646.7,829.3l19.3-32c6.6-7.6,12.1-16.7,15.8-26.2l21.3-35.2l-26.3-15.1l0,0c-7-4.6-17-4.3-28.1,2.1
			c-21.3,12.3-38.6,42.2-38.6,66.9c0,12.1,4.2,20.7,11,24.8l0,0l0.2,0.1c0.1,0,0.1,0.1,0.2,0.1L646.7,829.3z"/>
		
			<linearGradient id="SVGID_21_" gradientUnits="userSpaceOnUse" x1="636.0001" y1="297.609" x2="713.2" y2="297.609" gradientTransform="matrix(1 0 0 -1 0 1080)">
			<stop  offset="0" style="stop-color:#051367"/>
			<stop  offset="1" style="stop-color:#2D31FA"/>
		</linearGradient>
		<path class="st32" d="M713.2,760.1c0,24.6-17.3,54.6-38.6,66.9c-21.3,12.3-38.6,2.3-38.6-22.3s17.3-54.6,38.6-66.9
			C695.9,725.5,713.2,735.4,713.2,760.1z"/>
		
			<radialGradient id="SVGID_22_" cx="674.6" cy="297.65" r="53.1872" gradientTransform="matrix(1 0 0 -1 0 1080)" gradientUnits="userSpaceOnUse">
			<stop  offset="0" style="stop-color:#DFF6FF"/>
			<stop  offset="0.4742" style="stop-color:#5D8BF4"/>
			<stop  offset="0.6208" style="stop-color:#4055F8"/>
			<stop  offset="0.7299" style="stop-color:#2D31FA"/>
			<stop  offset="1" style="stop-color:#051367"/>
		</radialGradient>
		<path class="st33" d="M700,767.7c0,16.2-11.4,35.9-25.4,44s-25.4,1.5-25.4-14.7s11.4-35.9,25.4-44S700,751.5,700,767.7z"/>
		
			<radialGradient id="SVGID_23_" cx="681.6042" cy="294.9952" r="77.1564" gradientTransform="matrix(1 0 0 -1 0 1080)" gradientUnits="userSpaceOnUse">
			<stop  offset="0" style="stop-color:#DFF6FF"/>
			<stop  offset="0.4742" style="stop-color:#5D8BF4"/>
			<stop  offset="0.6208" style="stop-color:#4055F8"/>
			<stop  offset="0.7299" style="stop-color:#2D31FA"/>
			<stop  offset="1" style="stop-color:#051367"/>
		</radialGradient>
		<path class="st34" d="M685.7,749.6c2.1,3.1,3.4,7.3,3.4,12.6c0,16.2-11.4,35.9-25.4,44c-4,2.3-7.7,3.4-11.1,3.4
			c4.4,6.2,12.6,7.4,22,2c14-8.1,25.4-27.8,25.4-44C700,756.1,694.1,749.5,685.7,749.6z"/>
		
			<radialGradient id="SVGID_24_" cx="724.1377" cy="269.2" r="98.7134" gradientTransform="matrix(1 0 0 -1 0 1080)" gradientUnits="userSpaceOnUse">
			<stop  offset="0" style="stop-color:#DFF6FF"/>
			<stop  offset="0.4742" style="stop-color:#5D8BF4"/>
			<stop  offset="0.6208" style="stop-color:#4055F8"/>
			<stop  offset="0.7299" style="stop-color:#2D31FA"/>
			<stop  offset="1" style="stop-color:#051367"/>
		</radialGradient>
		<path class="st35" d="M749.6,810.8c0,14-11.4,25.4-25.4,25.4s-25.4-11.4-25.4-25.4s11.4-25.4,25.4-25.4
			C738.2,785.4,749.6,796.8,749.6,810.8z"/>
		
			<radialGradient id="SVGID_25_" cx="766.428" cy="301.7816" r="144.5259" gradientTransform="matrix(0.8101 0.4677 0.5 -0.866 -87.4819 690.8202)" gradientUnits="userSpaceOnUse">
			<stop  offset="0" style="stop-color:#DFF6FF"/>
			<stop  offset="0.4742" style="stop-color:#5D8BF4"/>
			<stop  offset="0.6208" style="stop-color:#4055F8"/>
			<stop  offset="0.7299" style="stop-color:#2D31FA"/>
			<stop  offset="1" style="stop-color:#051367"/>
		</radialGradient>
		<path class="st36" d="M714,846.2l-39.2-22.6c-14.1-8.1-18.9-26.2-10.8-40.3l6.3-10.9c8.1-14.1,26.2-18.9,40.3-10.8l39.2,22.6
			c14.1,8.1,18.9,26.2,10.8,40.3l-6.3,10.9C746.1,849.5,728.1,854.4,714,846.2z"/>
	</g>
</g>
</svg>
