<?xml version="1.0" encoding="utf-8"?>
<!-- Generator: Adobe Illustrator 25.2.1, SVG Export Plug-In . SVG Version: 6.00 Build 0)  -->
<svg version="1.1" id="Layer_1" xmlns="http://www.w3.org/2000/svg" xmlns:xlink="http://www.w3.org/1999/xlink" x="0px" y="0px"
	 viewBox="0 0 318 287" style="enable-background:new 0 0 318 287;" xml:space="preserve">
<style type="text/css">
	.st0{display:none;fill:#051367;}
	.st1{fill:#F4CF56;}
	.st2{fill:#FFFFFF;}
	.st3{fill:url(#SVGID_1_);}
	.st4{fill:url(#SVGID_2_);}
	.st5{fill:url(#SVGID_3_);}
	.st6{fill:url(#SVGID_4_);}
	.st7{fill:#051367;}
</style>
<rect class="st0" width="318" height="287"/>
<path class="st1" d="M98.3,38.8c0-0.8-0.2-4.5-3.3-7.6c-3.1-3.1-6.8-3.3-7.6-3.3c0.8,0,4.5-0.2,7.6-3.3c3.1-3.1,3.3-6.8,3.3-7.6
	c0,0.8,0.2,4.5,3.3,7.6c3.1,3.1,6.8,3.3,7.6,3.3c-0.8,0-4.5,0.2-7.6,3.3C98.6,34.3,98.3,38,98.3,38.8z"/>
<path class="st1" d="M23.2,108c0-0.6-0.2-3.3-2.4-5.5c-2.2-2.2-4.9-2.4-5.5-2.4c0.6,0,3.3-0.2,5.5-2.4c2.2-2.2,2.4-4.9,2.4-5.5
	c0,0.6,0.2,3.3,2.4,5.5c2.2,2.2,4.9,2.4,5.5,2.4c-0.6,0-3.3,0.2-5.5,2.4C23.4,104.7,23.2,107.4,23.2,108z"/>
<path class="st1" d="M287.1,188.8c0-0.6-0.2-3.3-2.4-5.5c-2.2-2.2-4.9-2.4-5.5-2.4c0.6,0,3.3-0.2,5.5-2.4c2.2-2.2,2.4-4.9,2.4-5.5
	c0,0.6,0.2,3.3,2.4,5.5c2.2,2.2,4.9,2.4,5.5,2.4c-0.6,0-3.3,0.2-5.5,2.4C287.3,185.6,287.2,188.3,287.1,188.8z"/>
<g>
	<g>
		<g>
			<path class="st2" d="M247,211.3H53.3c-4.6,0-8.3-3.7-8.3-8.3V65c0-4.6,3.7-8.3,8.3-8.3H247c4.6,0,8.3,3.7,8.3,8.3V203
				C255.3,207.6,251.6,211.3,247,211.3z"/>
			<linearGradient id="SVGID_1_" gradientUnits="userSpaceOnUse" x1="44.6728" y1="210.4799" x2="255.0095" y2="210.4799">
				<stop  offset="0" style="stop-color:#051367"/>
				<stop  offset="0.481" style="stop-color:#2D31FA"/>
				<stop  offset="0.9963" style="stop-color:#5D8BF4"/>
			</linearGradient>
			<path class="st3" d="M241.9,221.8H58.4c-7.4,0-13.4-6-13.4-13.4c0-3.1,0-6.1,0-9.2c70.1,0,140.2,0,210.3,0c0,3.1,0,6.1,0,9.2
				C255.3,215.8,249.3,221.8,241.9,221.8z"/>
			<linearGradient id="SVGID_2_" gradientUnits="userSpaceOnUse" x1="111.0561" y1="233.078" x2="188.6885" y2="233.078">
				<stop  offset="0" style="stop-color:#051367"/>
				<stop  offset="0.481" style="stop-color:#2D31FA"/>
				<stop  offset="0.9963" style="stop-color:#5D8BF4"/>
			</linearGradient>
			<polygon class="st4" points="111.1,244.4 122.5,221.8 177.5,221.8 188.7,244.4 			"/>
			<linearGradient id="SVGID_3_" gradientUnits="userSpaceOnUse" x1="88.458" y1="254.807" x2="211.8787" y2="254.807">
				<stop  offset="0" style="stop-color:#051367"/>
				<stop  offset="0.4804" style="stop-color:#2D31FA"/>
				<stop  offset="0.9963" style="stop-color:#5D8BF4"/>
			</linearGradient>
			<path class="st5" d="M204.6,265.2H95.7c-4,0-7.3-3.3-7.3-7.3v-6.3c0-4,3.3-7.3,7.3-7.3h108.9c4,0,7.3,3.3,7.3,7.3v6.3
				C211.9,262,208.6,265.2,204.6,265.2z"/>
		</g>
	</g>
	<g>
		<linearGradient id="SVGID_4_" gradientUnits="userSpaceOnUse" x1="185.9279" y1="91.5104" x2="273" y2="91.5104">
			<stop  offset="0" style="stop-color:#051367"/>
			<stop  offset="0.481" style="stop-color:#2D31FA"/>
			<stop  offset="0.9963" style="stop-color:#5D8BF4"/>
		</linearGradient>
		<path class="st6" d="M273,82.3c0-14.4,0-28.9,0-43.3c0-8-5.3-14.8-13.1-16.8c-0.5-0.1-1.2,0.1-1.6-0.5c-9.6,0-19.2,0-28.9,0
			c-9.7,0-19.4,0-29.1,0c-1.1,0.7-2.4,0.7-3.5,1.2c-6.8,2.8-10.8,9-10.8,16.6c0,21.9,0,43.8,0,65.6c0,12.8,0,25.7,0,38.5
			c0,8.4,5.2,15,13.3,17.1c0.4,0.1,0.8,0,1.1,0.5c9.7,0,19.4,0,29.1,0c0-2.7,0-5.4,0-8.1c-8,0-15.9,0-23.9,0c-0.7,0-1.4,0-2,0
			c-4.7,0.2-8.7-3.2-9.2-7.8c-0.1-0.7-0.1-1.4-0.1-2c0-34.5,0-68.9,0-103.4c0-4.7,2.3-8.2,6.3-9.4c1.2-0.4,2.5-0.6,3.7-0.3
			c2.4,0.5,3.6,2.3,3.7,5.3c0.3,6.1,5.3,11.5,11.3,12c3.4,0.2,6.8,0,10.2,0l0,0.1c2.9,0,5.7-0.1,8.6-0.1c7.3,0,12.8-5.4,13-12.7
			c0.1-3.3,2.9-5.4,6.3-4.7c4.4,0.9,7.5,4.5,7.5,9c0,3.5,0,7,0,10.5c0,31.3,0,62.6,0,93.9c0,4.9-2.7,8.4-7.3,9.5
			c-0.7,0.2-1.3,0.1-2,0.1c-8.7,0-17.4,0-26.1,0c0,0,0,0.1,0,0.1c0,2.7,0,5.4,0,8.1c9.6,0,19.2,0,28.9,0c0-0.2,0.2-0.2,0.4-0.3
			c3.2-0.5,5.9-1.9,8.3-4c4.2-3.7,6-8.5,6-14.1C273,122.7,273,102.5,273,82.3z"/>
		<path class="st2" d="M264.8,39c-0.1-4.5-3.1-8.2-7.5-9c-3.5-0.7-6.2,1.4-6.3,4.7c-0.2,7.3-5.7,12.7-13,12.7c-2.9,0-5.7,0-8.6,0.1
			c0,0,0-0.1,0-0.1c-3.4,0-6.8,0.2-10.2,0c-6.1-0.4-11.1-5.9-11.3-12c-0.1-3-1.4-4.8-3.7-5.3c-1.3-0.3-2.5-0.1-3.7,0.3
			c-4,1.3-6.3,4.7-6.3,9.4c0,34.5,0,68.9,0,103.4c0,0.7,0,1.4,0.1,2c0.6,4.6,4.5,8,9.2,7.8c0-5.7,0-11.4,0-17.2
			c0-3.1,1.5-4.6,4.7-4.6c7.1,0,14.2,0,21.2,0c0-0.1,0-0.1,0-0.2c6.6,0,13.1,0,19.7,0c5.2,0,6.3,1.2,6.3,6.3c0,5.2,0,10.4,0,15.6
			c0.7,0.1,1.3,0.1,2-0.1c4.6-1.1,7.3-4.6,7.3-9.5c0-31.3,0-62.6,0-93.9C264.8,46,264.9,42.5,264.8,39z M233.9,121.8
			c-1.5,0-3,0-4.5,0l0,0c-7.2,0-14.4,0-21.6,0c-2,0-3.6-1.1-4.1-2.9c-0.5-1.7,0.3-3.6,1.9-4.7c0.6-0.4,1.2-0.4,1.8-0.4
			c6.6,0,13.2,0,19.9,0c0.7,0,1.4-0.1,2.1-0.3l0,0l0,0c1.7,0.1,3.4-0.2,5.1,0.2c2,0.4,3.5,2.3,3.3,4.3
			C237.7,120.2,236,121.7,233.9,121.8z M229.4,104.4C229.4,104.4,229.4,104.4,229.4,104.4C229.4,104.4,229.4,104.4,229.4,104.4
			L229.4,104.4z M251.2,121.8c-2.2,0-4-1.7-4-3.9c0-2,2-4.1,4.1-4.2c2.2,0,4.1,1.8,4.1,4.1C255.3,120.1,253.6,121.8,251.2,121.8z
			 M250.6,104.4c-7.1-0.1-14.1,0-21.2,0l0-0.1c-7.3,0-14.5,0-21.8,0c-2.5,0-4.1-1.7-4.1-4.1c0-13.1,0-26.1,0-39.2
			c0-2.5,1.6-4.1,4.1-4.1c7.3,0,14.5,0,21.8,0c0-0.1,0-0.1,0-0.2c7,0,14,0,20.9,0c3.4,0,4.9,1.5,4.9,5c0,12.7-0.1,25.3,0.1,38
			C255.4,102.5,253.4,104.4,250.6,104.4z"/>
		<path class="st1" d="M255.5,137.4c0-5.1-1.2-6.3-6.3-6.3c-6.6,0-13.1,0-19.7,0c0,0.1,0,0.1,0,0.2c-7.1,0-14.2,0-21.2,0
			c-3.2,0-4.7,1.5-4.7,4.6c0,5.7,0,11.4,0,17.2c0.7,0,1.4,0,2,0c8,0,15.9,0,23.9,0c0,0,0-0.1,0-0.1c8.7,0,17.4,0,26.1,0
			C255.5,147.8,255.5,142.6,255.5,137.4z"/>
		<path class="st1" d="M255.3,61.6c0-3.4-1.5-5-4.9-5c-7,0-14,0-20.9,0c0,0.1,0,0.1,0,0.2c-7.3,0-14.5,0-21.8,0
			c-2.4,0-4.1,1.7-4.1,4.1c0,13.1,0,26.1,0,39.2c0,2.4,1.6,4.1,4.1,4.1c7.3,0,14.5,0,21.8,0c0,0,0,0.1,0,0.1c7.1,0,14.1-0.1,21.2,0
			c2.8,0.1,4.8-1.9,4.8-4.8C255.3,86.9,255.3,74.3,255.3,61.6z"/>
		<g>
			<path class="st7" d="M234.6,113.8c-1.7-0.4-3.4-0.2-5.1-0.2c0,0,0,0,0,0c-0.7,0.2-1.4,0.3-2.1,0.3c-6.6,0-13.2,0-19.9,0
				c-0.6,0-1.3,0-1.8,0.4c-1.6,1-2.5,3-1.9,4.7c0.5,1.8,2.1,2.9,4.1,2.9c7.2,0,14.4,0,21.6,0l0,0c1.5,0,3,0,4.5,0
				c2.1,0,3.8-1.5,4-3.6C238,116.1,236.6,114.3,234.6,113.8z"/>
			<path class="st7" d="M251.2,113.7c-2,0-4.1,2.1-4.1,4.2c0,2.2,1.8,3.9,4,3.9c2.4,0,4.2-1.6,4.2-4
				C255.3,115.5,253.4,113.6,251.2,113.7z"/>
		</g>
	</g>
	<g id="aV0Gok.tif">
		<g>
			<path class="st1" d="M135.2,121.6c0-2.5,0-5,0-7.4c0-6.4,3.8-11.9,9.7-14.2c8.7-3.4,18.6,2.3,20.1,11.5c0.2,1.3,0.2,2.6,0.2,3.9
				c0,2,0,4,0,6.1c0.5,0,1,0,1.5,0c3.6,0,6,2.4,6,6c0,8.5,0,17.1,0,25.6c0,3.6-2.4,6-6,6c-11,0-22.1,0-33.1,0c-3.6,0-6-2.4-6-6
				c0-8.5,0-17.1,0-25.6c0-3.6,2.4-6,6-6C134.1,121.6,134.6,121.6,135.2,121.6z M160.2,121.6c0-0.2,0-0.4,0-0.7c0-2.2,0-4.3,0-6.5
				c0-0.7,0-1.4-0.1-2c-0.8-5.2-6-9-11.2-8.2c-5.2,0.8-8.7,4.9-8.7,10.1c0,2.2,0,4.5,0,6.7c0,0.2,0,0.4,0,0.6
				C146.9,121.6,153.5,121.6,160.2,121.6z M152.7,144.1c0-0.9,0-1.8,0-2.6c0-0.4,0.1-0.6,0.4-0.8c1.4-1,2.1-2.3,2.1-4
				c0-2.4-1.6-4.4-3.9-4.9c-2.3-0.5-4.6,0.7-5.6,2.8c-1,2.1-0.3,4.7,1.6,6.1c0.4,0.3,0.5,0.5,0.5,1c0,1.7,0,3.3,0,5
				c0,1.5,1.1,2.6,2.5,2.6c1.4,0,2.5-1.1,2.5-2.6C152.7,145.7,152.7,144.9,152.7,144.1z"/>
		</g>
	</g>
</g>
</svg>
