<?xml version="1.0" encoding="utf-8"?>
<!-- Generator: Adobe Illustrator 19.2.1, SVG Export Plug-In . SVG Version: 6.00 Build 0)  -->
<svg version="1.1" id="layer" xmlns="http://www.w3.org/2000/svg" xmlns:xlink="http://www.w3.org/1999/xlink" x="0px" y="0px"
	 viewBox="0 0 652 652" style="enable-background:new 0 0 652 652;" xml:space="preserve">
<style type="text/css">
	.st0{fill-rule:evenodd;clip-rule:evenodd;fill:#F01010;}
	.st1{fill-rule:evenodd;clip-rule:evenodd;}
	.st2{fill-rule:evenodd;clip-rule:evenodd;fill:#FFFFFF;}
</style>
<path class="st0" d="M605.6,264.6c27.2,0,27.2,40.7,0,40.7C578.5,305.4,578.5,264.6,605.6,264.6L605.6,264.6z M605.6,264.6
	 M180.7,270.1c2.7,0,5.1,0.5,7,1.6c1.8,1.1,2.8,2.6,2.9,4.4c-0.1,1-0.6,1.9-1.2,2.6c-0.7,0.6-1.7,1-2.7,0.9c-0.4,0-0.8-0.1-1.2-0.3
	c-0.5-0.2-0.9-0.4-1.2-0.8c-1-1.2-2-2.1-3.4-3.1c-1.4-0.9-3-1.4-4.6-1.3c-1.5,0-2.8,0.5-4.1,1.5c-1.2,0.9-2.3,2.3-3,4
	c-1.1,3.6-1.8,7.4-2,11.2c-0.2,2-0.2,4-0.2,5.6v3c0,1.2,0,2,0.2,2.4c0.2,0.4,0.7,0.6,1.6,0.4h11.4c0.4,0.4,0.5,0.8,0.5,1.5l-0.2,1.4
	l-0.1,0.4c-0.3,0.4-0.6,0.7-1.1,0.9h-10.6c-0.9-0.1-1.4,0.2-1.6,0.6c-0.2,0.3-0.2,1.1-0.2,2.3v21.3c0,2.3,0,4.1,0.2,5.3
	c0.2,1.2,0.5,2.1,1,2.6c0.5,0.4,1.5,0.7,2.7,0.8l3.5,0.3c0.4,0.3,0.6,0.6,0.4,1.3c-0.1,0.5-0.3,1-0.5,1.2l-5.8-0.4h-10.3l-4.5,0.4
	c-0.4-0.3-0.5-0.7-0.7-1.2c0-0.7,0.2-1.1,0.6-1.3l2.3-0.3c1.2-0.1,2-0.4,2.6-1c0.6-0.4,0.8-1.2,1-2.5c0.3-1.2,0.3-3,0.1-5.3v-21.3
	c0.1-1.2,0.1-2-0.1-2.2c-0.2-0.4-0.9-0.7-1.8-0.6H154c-0.3-0.3-0.4-0.5-0.4-0.8c-0.1-0.4,0-0.8,0.1-1.1l4.3-2.1
	c0.4-0.1,0.7-0.4,1-0.7c0.3-0.4,0.4-0.8,0.4-1.3c0-6.1,1.1-12.1,3.2-17.7c0.9-1.9,2.1-3.8,3.5-5.8c1.6-2,3.7-3.6,5.9-4.8
	C174.8,270.9,177.7,270.1,180.7,270.1L180.7,270.1z M256.6,305.5c0.1,0.4,0.3,0.7,0.5,1h2.7c1-0.1,1.6,0.2,1.9,0.6
	c0.2,0.3,0.3,1.1,0.3,2.3v22.9c-0.1,2,0.1,3.9,0.7,5.4c0.7,1.6,1.6,3,3.1,3.9c4.1,2.1,9,2,13.1-0.1c1.8-1,3.1-1.9,3.9-3.1
	c0.1-0.3,0.1-0.5-0.2-1c-0.1-0.4-0.4-0.6-0.8-0.6c-0.1,0-0.5,0.3-1.1,0.6c-0.5,0.3-1,0.6-1.5,0.7c-0.2,0.1-0.4,0.2-0.5,0.3
	c-0.2,0.1-0.4,0.2-0.5,0.3c-0.6,0.1-1.1,0.1-1.4,0.1c-2.1-0.1-3.8-0.6-4.8-1.7c-1.2-1.1-1.9-2.5-2.1-4.1c-0.4-1.6-0.5-3.4-0.5-5.4
	v-18.6c0-0.9,0.2-1.6,0.4-2c0.1-0.4,0.6-0.5,1.6-0.4h11c0.5-0.4,0.8-1.1,0.8-2c0.2-0.9-0.1-1.7-0.8-2.1h-11c-0.8,0-1.3-0.1-1.5-0.3
	c-0.1-0.1-0.3-0.6-0.3-1.6V296c-0.2-0.4-0.6-0.6-1.1-0.5c-0.5-0.2-0.9-0.2-1.1,0c-0.6,1.1-1.3,2.1-2,3.2c-0.6,1-1.3,1.8-2.2,2.6
	c-0.5,0.5-1.3,1.1-2.6,1.6c-1.1,0.7-2.3,1.1-3.8,1.5C256.7,304.7,256.6,305.1,256.6,305.5L256.6,305.5z M256.6,305.5 M214.3,312.6
	c0,0.8,0,1.4-0.1,1.8l-0.2,0.4l-0.1,0.5c-0.1,0.2-0.5,0.4-1.5,0.5c-1,0.1-2.5,0.1-4.5,0.1h-18.5c-1.2-0.2-1.9,0-2.2,0.3
	c-0.4,0.4-0.5,1.2-0.4,2.4c0,3.4,0.7,6.4,1.9,9.3c2.5,5.9,8.4,9.6,14.7,9.3c1.6,0.2,3.1-0.3,4.4-0.9c1.6-0.7,3.1-1.9,4.6-3.9
	c0.7-0.2,1.1,0,1.4,0.1c0.3,0.3,0.4,0.7,0.6,1.1c-1.3,2.1-2.6,3.9-4.4,5.4c-5.8,4.3-13.5,5.1-20,2.1c-2.3-1.1-4.4-2.7-5.9-4.7
	c-2.8-3.7-4.2-8.3-4.1-13c0-4.2,0.8-7.9,2.4-11.3c3.2-6.8,10-11.1,17.5-11.3c3,0.1,5.6,0.6,7.7,1.7c2,1.2,3.7,2.7,4.9,4.5
	C213.8,308.8,214.3,310.7,214.3,312.6L214.3,312.6z M206.7,310.1c0-0.9-0.3-1.9-0.7-2.9c-0.5-1-1.4-1.8-2.5-2.2
	c-1.4-0.8-3-1.1-4.5-1.1c-2,0-4,0.5-5.5,1.5c-1.7,1-3.1,2.1-4.2,3.5c-0.9,1.2-1.5,2.4-1.6,3.6c0,0.2,0,0.2,0.1,0.3
	c0.2,0.2,0.3,0.2,0.7,0.2h7c3.7,0,6.3-0.2,7.9-0.3c1.5-0.2,2.3-0.3,2.6-0.5c0.2-0.2,0.4-0.4,0.4-0.7
	C206.6,311,206.7,310.6,206.7,310.1L206.7,310.1z M206.7,310.1 M246.1,301.2c-6.2-1.1-12.5-0.1-18.1,3c-3.3,2-6.1,4.9-8,8.3
	c-2.9,5.9-3.3,12.8-1,19c1.1,2.6,2.5,4.7,4.2,6.3c1.8,1.8,3.9,3,6.2,3.7c4.4,1.7,9.2,1.9,13.7,0.4c2-0.6,4.1-1.9,6.1-3.4
	c1.9-1.5,3.4-3.5,4.5-5.9c-0.1-0.4-0.3-0.8-0.6-1c-0.3-0.4-0.7-0.6-1.2-0.4c-1.1,1.7-2.5,3.1-4.2,4.3c-1.7,1.1-3.9,1.6-6.8,1.6
	c-6.2,0.2-11.9-3.4-14.4-9.1c-1.2-2.5-1.9-5.1-1.9-7.9c0.2-3.6,0.8-6.6,2-9c1.3-2.3,3.1-4.1,5.2-5.3c2-1.2,4.3-1.8,6.6-1.8
	c2,0,4.1,0.5,5.9,1.6c1.7,1,3,2.1,4.2,3.5c0.3,0.3,0.5,0.5,0.8,0.6h0.7c0.6,0,1.1-0.4,1.5-1.1c0.4-0.7,0.7-1.6,0.7-2.6
	c0-0.8-0.1-1.6-0.4-2.3c-0.3-0.6-0.6-1.2-1.2-1.6C249.2,302,247.7,301.7,246.1,301.2L246.1,301.2z M559.4,301.8
	c-0.4,0.1-0.6,0.6-0.7,1.1c0,0.7,0.1,1.1,0.4,1.3l3.1,0.5c0.9,0.2,1.5,0.4,1.9,0.7c0.4,0.3,0.6,0.5,0.6,1c0,0.6-0.3,1.8-1,3.5
	l-0.1,0.3l-2.5,6.3l-3.4,8l-0.2,0.5l-2.2,4.7c-0.7,1.5-1.1,2.1-1.3,2.1c-0.9-1.9-1.8-3.8-2.5-5.8l-0.4-1.2l-3.1-9.2l-0.1-0.3
	c-0.4-0.9-0.7-1.8-0.9-2.7l-0.6-1.8l-0.6-1.9c-0.3-0.9-0.5-1.8-0.5-2.7c0-0.3,0.1-0.6,0.4-0.8h0.1l0.2-0.1c0.3-0.1,0.8-0.3,1.4-0.4
	l2.5-0.5c0.4-0.3,0.5-0.6,0.4-1.3c0-0.5-0.3-1-0.6-1.1c-0.7,0.1-1.5,0.1-2.2,0.1l-2.3,0.2h-9c-0.8-0.1-1.6-0.1-2.4-0.2l-2.3-0.1
	c-0.4,0.1-0.7,0.6-0.7,1.1c-0.1,0.7,0,1.1,0.3,1.3l2.6,0.5c1.8,0.4,3,1.2,3.7,2.5c0.7,1.2,1.5,3,2.1,5.3l8,21.5
	c0.6,1.8,1.1,3.1,1.3,4.1v0.1c0.1,0.9,0.3,1.8,0.3,2.7c0,0.7-0.2,1.5-0.4,2.3c-0.1,0.6-0.3,1.2-0.5,1.8v0.1l-0.1,0.1
	c-0.4,1.2-1.2,2.8-2.1,4.6c-1,2-2.2,4.2-3.7,6.5c-0.4,0.5-0.8,0.9-1.3,1.3c-0.6,0.3-1.3,0.4-2,0.4h-1.9c-1.1,0-2,0.4-2.8,1.1
	c-0.7,0.8-1.1,1.9-1.2,3c0,1.2,0.4,2.3,1.2,3.1c0.8,0.7,1.9,1.1,3.2,1.1c1.3,0.2,2.4-0.1,3.4-0.8c1.2-0.6,2.1-2,3.1-3.9l1.6-3.5
	l2.6-5.6l1.8-4l2.8-5.9c1.4-3.3,2.8-6.3,4.2-9.1l0.1-0.3c1.4-2.7,2.5-5,3.2-6.8l5.6-11.4c1.8-3.5,3.1-6.1,4.3-7.7
	c1.3-1.6,2.7-2.6,4.2-3l1.8-0.3c0.4-0.4,0.5-0.8,0.5-1.3c-0.2-0.5-0.4-1-0.8-1.1l-1.9,0.1l-1.9,0.2H564l-2.4-0.2L559.4,301.8z
	 M133.7,299.6c0.2,0.2,0.2,0.4,0.3,0.6v5.7c0,0.4,0.2,0.8,0.3,1c1.8-1.5,3.7-3,5.6-4.2c1.7-1.2,3.6-1.8,5.5-1.9
	c1.2,0.2,2.3,0.5,3.1,1.2c1,0.7,1.3,1.6,1.3,3c-0.1,1.4-0.7,2.7-1.5,3.5c-0.8,0.6-1.8,0.9-2.8,1c-0.6,0-1,0-1.3-0.2
	c-0.1,0-0.2-0.1-0.3-0.2c-0.2-0.1-0.4-0.3-0.6-0.4c-0.7-0.5-1.5-0.9-2.3-1.2c-0.7-0.3-1.4-0.4-2.1-0.4c-0.7-0.1-1.4,0.1-2,0.6
	c-0.6,0.3-1.1,0.9-1.5,1.5c-0.4,0.7-0.9,1.6-1.1,3.1c-0.1,1.3-0.3,2.8-0.3,4.6v13.6c0,2.3,0,4.1,0.2,5.3c0.1,1.2,0.5,2.1,1.2,2.6
	c0.4,0.4,1.3,0.7,2.5,0.8l3.7,0.3c0.4,0.3,0.5,0.6,0.4,1.3c0,0.5-0.2,1-0.5,1.2l-5.9-0.4h-10.2l-4.3,0.4c-0.3-0.3-0.4-0.7-0.5-1.2
	c-0.2-0.7,0-1.1,0.4-1.3l2-0.3c1.1-0.1,1.9-0.5,2.4-1c0.5-0.4,1-1.2,1.1-2.5c0.2-1.2,0.2-3,0-5.3V313c0.2-1.3,0.2-2.1,0-2.8
	c0-0.7-0.2-1.4-0.6-1.9c-0.5-0.6-1.2-1-1.9-1.3l-1-0.8c-0.1-0.2-0.3-0.4-0.3-0.8c0-0.4,0.1-0.9,0.5-1l0.3-0.1c1.2-0.4,2.4-1,3.5-1.6
	l2.9-1.4l0.1-0.1c1.3-0.6,2.4-1.1,3.1-1.7C133.4,299.5,133.6,299.5,133.7,299.6L133.7,299.6z M133.7,299.6 M117.9,314.4
	c0.1-0.4,0.1-1.1,0.1-1.8c0-2-0.6-3.9-1.8-5.7c-1.3-1.8-2.9-3.3-4.8-4.5c-2.1-1.1-4.7-1.6-7.6-1.7c-3.7,0.1-7.4,1.2-10.6,3.2
	c-3,2-5.3,4.7-7,8c-2.7,5.7-3.2,12.1-1.5,18.1c1.3,4.8,4.5,8.8,9,10.9c2.6,1.2,5.5,1.7,8.8,1.9c4.1-0.1,8.1-1.5,11.4-3.9
	c1.8-1.5,3.1-3.2,4.3-5.4c-0.1-0.4-0.2-0.9-0.5-1.1c-0.4-0.2-0.9-0.2-1.3-0.1c-2.1,3-5.5,4.8-9.2,4.8c-6.3,0.3-12.2-3.4-14.6-9.3
	c-1.3-2.9-1.9-6.1-1.9-9.3c-0.1-1.2,0-2,0.4-2.4c0.3-0.3,1-0.4,2.1-0.3h18.5c2,0,3.5,0,4.5-0.2c1-0.1,1.3-0.3,1.5-0.5l0.1-0.5
	C117.8,314.8,117.8,314.6,117.9,314.4L117.9,314.4z M109.7,307.3c0.5,1,0.7,1.9,0.5,2.9c0,0.7,0,1.1-0.1,1.3
	c-0.1,0.4-0.3,0.5-0.4,0.7c-0.3,0.3-1.2,0.4-2.7,0.5c-1.5,0.1-4.1,0.3-7.7,0.3h-7.1c-0.4,0-0.5,0-0.6-0.2c-0.2-0.1-0.2-0.1-0.2-0.3
	c0.2-1.2,0.7-2.4,1.6-3.6c1.1-1.4,2.4-2.6,4.2-3.5c1.6-1,3.5-1.5,5.4-1.5c2.1,0,3.5,0.4,4.7,1.1
	C108.5,305.6,109.4,306.4,109.7,307.3L109.7,307.3z M109.7,307.3 M458.8,299.6c-0.3-0.2-0.6-0.2-0.7-0.2c-0.9,0.7-1.9,1.3-2.8,1.8
	l-1.6,0.8c-1.8,0.9-3.7,1.8-5.5,2.4c-0.3,0.1-0.4,0.5-0.4,1c0,0.4,0.1,0.6,0.3,0.8l0.9,0.5l0.6,0.4c0.5,0.5,1.1,0.9,1.3,1.2
	c0.4,0.5,0.5,0.8,0.5,1.3l0.1,0.1c0.1,0.5,0.1,1.6,0.1,2.7v18.2c0.1,2.3,0,4.1-0.2,5.3c-0.1,1.2-0.4,2-0.9,2.5
	c-0.5,0.5-1.3,0.8-2.6,1l-2.1,0.3c-0.3,0.3-0.4,0.6-0.3,1.3c0,0.5,0.1,1,0.5,1.2l4.4-0.4h9.9l4,0.4c0.4-0.3,0.6-0.7,0.6-1.2
	c0-0.7-0.1-1.1-0.4-1.3l-1.8-0.3c-1.2-0.1-2.1-0.5-2.7-1c-0.6-0.7-0.9-1.6-1-2.5c-0.1-1.2-0.1-3-0.1-5.3v-15.3c0-2.3,0-4.2,1.3-6.1
	c0.6-1,1.9-1.9,3.5-2.6c1.5-0.7,3.1-0.9,5.1-0.9c3.3,0.1,5.6,1.1,7.1,2.8c1.5,2,2.3,4.6,2.1,7.1v15c0,2.3,0,4.1-0.2,5.3
	c0,0.9-0.4,1.8-0.9,2.5c-0.8,0.5-1.7,0.8-2.7,1l-1.9,0.3c-0.3,0.3-0.4,0.6-0.4,1.3c0.1,0.5,0.3,1,0.6,1.2l4.3-0.4h9.8l2.8,0.3
	l1.8,0.2c0.3-0.3,0.5-0.7,0.7-1.2c0-0.7-0.2-1.1-0.5-1.3l-2.1-0.3c-1,0-1.9-0.4-2.7-1c-0.6-0.7-0.9-1.6-1-2.5
	c-0.1-1.2-0.1-3-0.1-5.3v-17.3c0-2.3-0.4-4.3-1.2-6.1c-0.8-1.9-2.1-3.5-3.7-4.6c-1.8-1.1-3.9-1.6-6.7-1.8c-2.6,0.2-5,0.7-7.3,1.6
	c-2.3,1-4.6,2.2-6.8,3.5c-0.3,0-0.5-0.1-0.6-0.3c-0.2-0.2-0.2-0.4-0.3-0.6v-2c0-0.7,0-1.6,0.1-2.7
	C459.1,300.1,459,299.8,458.8,299.6L458.8,299.6z M458.8,299.6 M444,321.4c0,3.9-0.9,7.8-2.7,11.2c-1.7,3.2-4.4,5.8-7.5,7.6
	c-3.4,1.8-7.2,2.7-11.1,2.7c-3.6,0-7.2-0.9-10.4-2.5c-3-1.6-5.4-4-7.2-7c-2-3.3-3-7.1-2.8-11c0-4.3,0.9-8,2.8-11.2
	c1.8-3.2,4.5-5.8,7.7-7.5c3.1-1.8,6.8-2.7,10.8-2.8c3.5,0.1,7,0.9,10.2,2.5c3.1,1.8,5.5,4.2,7.3,7.3
	C442.9,313.8,443.9,317.4,444,321.4L444,321.4z M434.2,314.3c-0.9-3-2.3-5.4-4.2-7.3c-1.8-2-4.3-3.1-7.4-3.1c-3.4,0-6.2,1.5-8.3,4.6
	c-2.1,2.8-3.2,7.1-3.4,12.6c0,3.1,0.5,6.1,1.5,9.1c0.9,2.9,2.3,5.1,4.3,7c1.8,1.8,4.2,2.7,7.2,2.7c2.9,0,5.1-0.8,6.9-2.6
	c3.2-4.1,4.8-9.1,4.6-14.3C435.5,320.1,435.1,317.1,434.2,314.3L434.2,314.3z M500.8,316.3c0.4-0.3,1.1-0.4,2.4-0.3h18.8
	c2,0,3.5,0,4.4-0.2c1.9-0.3,1.9-1.4,1.9-3.2c0-2-0.7-3.9-1.9-5.7c-1.1-1.7-2.7-3.2-4.8-4.5c-2.2-1.1-4.8-1.6-7.8-1.7
	c-7.5,0.1-14.4,4.5-17.7,11.2c-3.9,7.8-3.3,17.1,1.7,24.3c1.5,1.9,3.4,3.5,5.9,4.7c2.6,1.2,5.5,1.7,8.7,1.9
	c4.1-0.1,8.1-1.4,11.5-3.9c1.8-1.5,3.3-3.2,4.6-5.4c-0.2-0.4-0.3-0.9-0.7-1.1c-0.3-0.1-0.7-0.3-1.4-0.1c-1.5,2-3,3.2-4.5,3.9
	c-1.3,0.6-2.8,1.1-4.7,0.9c-3.7,0-6.7-0.8-9.1-2.6c-2.5-1.6-4.4-3.9-5.7-6.7c-1.5-3.3-2.2-6.8-2-10.4
	C500.3,317,500.5,316.6,500.8,316.3L500.8,316.3z M502.1,313c-0.3,0-0.4,0-0.5-0.2l-0.2-0.1v-0.2c0.2-1.2,0.7-2.4,1.6-3.6
	c1.1-1.4,2.5-2.6,4.1-3.5c1.6-1,3.6-1.5,5.6-1.5c1.9,0,3.4,0.4,4.5,1.1c1.1,0.4,2,1.2,2.6,2.2c0.4,1,0.7,1.9,0.6,2.9
	c0,0.7,0,1.1-0.1,1.3c-0.1,0.4-0.3,0.5-0.4,0.7c-0.3,0.3-1.2,0.4-2.8,0.5c-1.5,0.1-4.2,0.3-7.9,0.3H502.1z M502.1,313 M324.9,275.5
	h3.6c2.8,0,5.6-0.1,8.4-0.3c-0.1,2,0.3,4.4,1.2,7.3c1.1,2.8,2.4,5.9,3.9,9.2l11.5,23l1,2.1c1.8,4,3.7,7.9,5.8,11.8h0.3
	c1.5-2.4,2.8-4.8,4-7.5l1.5-3.1l2.1-4.6l9.5-19.1l3.7-7.8l1.6-3.5c1.3-3,2.1-5.6,2.2-7.8c2.5,0.2,4.9,0.3,7.5,0.3h4.2l2.4-0.2
	l2.4-0.1c0.3,0.3,0.4,0.6,0.4,1.1c0.2,0.6,0,1.1-0.3,1.3l-2,0.1c-2.1,0.3-3.8,0.6-4.7,1.2c-1,0.7-1.7,1.8-1.9,3
	c-0.3,1.8-0.5,3.6-0.4,5.4v12.9l0.3,7.2l0.3,8.3v0.1c0.2,6.5,0.4,13,0.8,19.5c0.3,2.5,2.4,3.6,4.6,3.8l3.2,0.3
	c0.3,0.4,0.4,0.8,0.3,1.3c0,0.6-0.2,1-0.5,1.3l-6.1-0.4H384l-4.1,0.3l-2.2,0.2c-0.4-0.3-0.6-0.8-0.5-1.3c-0.1-0.7,0-1.1,0.3-1.3
	l3-0.3c2.4-0.2,4.4-0.9,4.8-3.5c0.1-1.2,0.3-2.8,0.1-5l-0.3-41.8H385c-2.3,3.5-4.5,8.3-6.5,12.8c-1.1,2.3-2.2,4.7-3.2,6.7l-5.5,11
	l-3.1,5.9l-1.5,2.9c-1.3,2.7-2.5,5.3-3.7,8c-1.1,2.1-1.8,3.9-2.5,5.5l-0.3,0.6l-0.2,0.1c-0.1,0-0.1,0.1-0.1,0.2
	c-0.2,0.1-0.4,0.1-0.7,0.1l-0.4-0.1c0-0.1-0.1-0.1-0.1-0.2c-0.1,0-0.2-0.1-0.2-0.1c-0.5-1.9-1.3-4.1-2.5-6.5c-1.1-2.5-2.3-5-3.5-7.4
	c-1.1-2.5-2-4.5-2.8-6.1l-9.1-19.3l-3.1-6.8l-0.2-0.4c-0.9-2.6-2-4.9-3.1-7.2h-0.3l-0.3,5.6l-0.1,3.3l-0.6,8.8l-0.4,10.9v0.1
	c-0.1,4.2-0.3,8.3-0.3,12.4c-0.2,2.5,0,4.3,0.4,5.7c0.2,1.2,0.6,2.1,1.2,2.7c0.7,0.6,1.6,0.9,2.8,1l3.8,0.3c0.4,0.4,0.5,0.8,0.5,1.3
	c0,0.6-0.2,1-0.6,1.3l-5.4-0.4h-10.7l-2,0.2l-3.1,0.3c-0.3-0.3-0.5-0.8-0.5-1.3c-0.1-0.7,0-1.1,0.4-1.3l2.1-0.3
	c1.3-0.2,2.4-0.5,3.4-1c0.8-0.4,1.5-1.1,1.9-2.1c0.4-1.1,0.7-2.9,0.9-5.2l0.3-3.2l0.3-3.2l0.2-2.7c0.1-1.3,0.3-2.7,0.3-4.3l0.2-2.7
	c0.1-1.8,0.3-3.7,0.3-5.8l0.1-0.6c0.5-7.2,0.9-14.5,1.1-21.7c0.1-2,0-3.6-0.3-4.9c-0.2-1.1-0.9-2.1-1.9-2.7c-1.4-0.5-2.9-1-4.4-1.2
	l-1.6-0.1c-0.3-0.4-0.4-0.9-0.3-1.3c0.1-0.6,0.3-1,0.6-1.1C322.2,275.3,323.5,275.4,324.9,275.5L324.9,275.5z M38.1,277.1
	c-0.2,0.6,0.1,1,0.5,1.3l3.5,0.4c1.5,0.1,2.6,0.5,3.2,1.2c0.7,0.5,1.1,1.5,1.2,3c0.2,1.5,0.3,3.6,0.3,6.6v20.1
	c2.7,0.1,5.4,0.1,8.1,0v-27.8c-0.2-1.1,0-1.9,0.3-2.6c0.1-0.4,0.6-0.8,1.3-1c0.8-0.1,2.1-0.1,4-0.1c5.2,0.1,9.1,1.5,11.9,4.3
	c2.7,2.8,4.1,6.8,4.1,11.7c0.1,4.4-0.9,8-3.3,11c-2,2.6-5,4.5-9.1,5.4c-3.9,1-9.5,1.4-17,1.2c-6.5-0.1-13.6-0.5-21.3-1.3
	c8.6,1.8,15,3,19,3.4c6.6,0.9,13.2,0.7,19.3-0.3c2.9-0.4,5.8-1.1,8.6-2.1c2.6-1.3,5.1-2.7,7.5-4.4c1.5-1.1,2.9-2.8,4-5.1
	c3.5-8.2,0.8-17.8-6.4-23c-2.6-1.5-5.4-2.5-8.3-3.1c-3.1-0.5-6.8-0.9-11-0.9c-4.1,0-7.8,0-11,0.2c-3.2,0.2-6.2,0.3-8.8,0.5
	C38.3,276.1,38.1,276.6,38.1,277.1L38.1,277.1z M54.9,317.3v9.5c-0.1,3.4,0,5.9,0.3,7.7c0.3,1.8,0.9,2.8,1.9,3.5
	c0.8,0.6,2.2,1.1,4.4,1.2l2.7,0.3c0.3,0.3,0.4,0.6,0.4,1.3c-0.1,0.5-0.3,1-0.5,1.2c-2.4-0.1-4.8-0.3-7.2-0.4H45l-6,0.4
	c-0.4-0.3-0.6-0.7-0.6-1.2c-0.1-0.5,0-1,0.4-1.3l2-0.3c2-0.1,3.3-0.7,4-1.4c0.9-0.6,1.5-1.6,1.6-3.4c0.3-1.8,0.4-4.4,0.4-7.7v-9.9
	C49.2,317.3,51.9,317.4,54.9,317.3L54.9,317.3z M54.9,317.3"/>
<path class="st1" d="M458.7,380.6v-13.3h-2.3v-3.1h2.3v-0.7c0-2.1,0.5-4.3,2-5.6c1.2-1.2,2.9-1.6,4.4-1.6c1.1,0,2,0.2,2.7,0.4
	l-0.3,3.2c-0.6-0.2-1.2-0.3-1.8-0.3c-2.1,0-2.8,1.7-2.8,3.7v0.8h3.7v3.1h-3.7v13.3H458.7L458.7,380.6z M326.2,358.2h4.1v14.6
	c0,6.2-3,8.3-7.5,8.3c-1.2,0-2.6-0.2-3.5-0.5l0.5-3.3c0.6,0.2,1.6,0.4,2.5,0.4c2.4,0,3.8-1.1,3.8-5V358.2z M352.2,375.9
	c0,2,0.1,3.5,0.2,4.9h-3.7l-0.2-2.5h0c-0.7,1.2-2.4,2.8-5.4,2.8c-3.1,0-5.8-1.8-5.8-7v-9.5h4.2v8.8c0,2.7,0.9,4.4,3.1,4.4
	c1.7,0,2.8-1.2,3.2-2.1c0.1-0.4,0.3-0.8,0.3-1.3v-9.7h4.2V375.9z M363.2,378.1c-1.4,0-3.2-0.6-4.1-1.2l-0.8,3
	c1.2,0.7,2.9,1.2,4.9,1.2c4.3,0,6.6-2.1,6.6-5.1c0-2.4-1.4-3.9-4.3-5c-2.1-0.7-2.8-1.2-2.8-2.3c0-1,0.8-1.7,2.3-1.7s2.7,0.5,3.4,0.9
	l0.8-2.9c-1-0.5-2.5-1-4.3-1c-3.7,0-6.1,2.3-6.1,5.2c0,1.9,1.3,3.6,4.4,4.7c2,0.7,2.7,1.2,2.7,2.3
	C365.8,377.4,365.1,378.1,363.2,378.1L363.2,378.1z M380.9,360v4.3h4v3.1h-4v7.3c0,2,0.5,3,2.1,3c0.6,0,1.1-0.1,1.7-0.2l0.1,3.2
	c-0.6,0.2-1.7,0.4-3,0.4c-1.4,0.1-2.7-0.4-3.7-1.4c-0.9-1-1.3-2.4-1.3-4.6v-7.8h-2.4v-3.1h2.4v-3L380.9,360L380.9,360z M404.5,375.2
	c-0.1-0.4-0.2-0.7-0.2-1.1v-2.5c0-0.4,0.1-0.7,0.2-1.1c0.4-1.8,1.9-3,3.7-3.1c2.7,0,4.1,2.4,4.1,5.3c0,3.2-1.6,5.4-4.2,5.4
	C406.4,378,404.9,376.8,404.5,375.2L404.5,375.2z M400,364.5l0.1,5.5v17.6h4.2v-8.5h0.1c0.9,1.3,2.6,2.2,4.7,2.2
	c3.7,0,7.5-2.9,7.5-8.7c0-5.1-3.2-8.4-7-8.4c-2.5,0-4.4,1.1-5.6,2.9h-0.1l-0.2-2.5H400z M432.8,370.9c0-1.5-0.6-4-3.4-4
	c-2.6,0-3.7,2.3-3.9,4H432.8z M425.5,373.8c0.1,3,2.5,4.2,5.1,4.2c1.9,0,3.3-0.3,4.6-0.8l0.6,2.8c-1.4,0.6-3.4,1-5.7,1
	c-5.4,0-8.5-3.3-8.5-8.3c0-4.5,2.8-8.7,8-8.7c5.4,0,7.1,4.4,7.1,7.9l-0.1,1.7H425.5z M442.7,364.5l0.1,5.2v10.9h4.1v-8.3l0.1-1.3
	c0.4-1.8,1.7-3,3.7-3c0.5,0,0.9,0,1.2,0.1v-3.9c-0.3-0.1-0.6-0.1-1-0.1c-1.7,0-3.6,1.2-4.4,3.5h-0.2l-0.1-3.1H442.7z M477.9,367
	c2.8,0,3.5,2.4,3.4,4h-7.2C474.3,369.3,475.4,367,477.9,367L477.9,367z M479.2,378c-2.7,0-5-1.3-5.1-4.2h11l0.1-1.7
	c0-3.6-1.7-7.9-7.1-7.9c-5.3,0-8,4.3-8,8.7c0,5,3.2,8.3,8.5,8.3c2.4,0,4.3-0.5,5.8-1.1l-0.6-2.8C482.5,377.7,481.1,378,479.2,378
	L479.2,378z M503.6,380.2c-0.9,0.4-2.7,0.9-4.7,0.9c-5.2,0-8.6-3.3-8.6-8.3c0-4.8,3.4-8.7,9.3-8.7c1.4,0,2.8,0.3,4.1,0.8l-0.7,3.1
	c-1-0.5-2.1-0.7-3.2-0.6c-3.2,0-5.1,2.3-5.1,5.3c0,3.4,2.3,5.2,5.1,5.2c1.5,0,2.5-0.3,3.3-0.6L503.6,380.2L503.6,380.2z
	 M514.5,364.2V360l-4,1.2v3h-2.3v3.1h2.3v7.8c0,2.1,0.4,3.6,1.2,4.6c0.8,0.9,2,1.4,3.5,1.4c1.3,0,2.3-0.2,2.9-0.4l-0.1-3.2
	c-0.5,0.2-1.1,0.3-1.6,0.2c-1.6,0-2-1.1-2-3v-7.3h3.8v-3.1L514.5,364.2L514.5,364.2z M514.5,364.2"/>
<path class="st2" d="M604.7,278.6h-2.7c-0.1,0-0.1,0.1-0.2,0.2c0,0.1,0,0.2,0.1,0.3l0.3,0.1l1.1,0.3c0.2,0.2,0.4,0.4,0.4,0.6
	c0,0.3,0.1,0.6,0,1.1l-0.1,2.4l-0.2,2.8c0,1.5-0.1,5.1-0.5,6.2c-0.1,0.2-0.3,0.4-0.5,0.6c-0.3,0.1-0.5,0.1-0.8,0.1l-0.5,0.1
	c-0.1,0.1-0.1,0.2-0.1,0.3c0,0.1,0,0.2,0.2,0.3l1.2-0.1h2.5l1.2,0.1c0.1-0.1,0.1-0.1,0.1-0.3c0-0.1,0-0.2-0.1-0.3h-0.8
	c-0.3,0-0.5-0.1-0.7-0.3c-0.1-0.1-0.1-0.2-0.2-0.3c-0.1-0.5-0.2-1.1-0.2-1.6v-2.9l0.1-2.5l0.2-2c0-0.7,0-1.3,0.1-2l0.8,1.6l0.7,1.7
	l2.2,4.4l0.6,1.4l0.9,1.7l0.3,0.9l0.2,0.6c0.1,0.1,0.3,0.1,0.4,0l0.6-1.4c0.6-1.3,1.2-2.6,1.9-3.9l2-4c0.2-0.3,0.3-0.7,0.5-1.1
	c0.3-0.7,0.6-1.3,1-1.9l0,9.6v1.1c0,0.3-0.1,0.5-0.3,0.5c-0.1,0.1-0.4,0.3-0.8,0.3l-0.6,0.1c-0.1,0.1-0.1,0.2-0.1,0.3
	c0,0.1,0.1,0.2,0.2,0.3l1.5-0.1h2.7l1.4,0.1c0.1,0,0.2-0.1,0.2-0.3c0-0.1,0-0.2-0.1-0.3h-0.7c-0.3-0.1-0.5-0.2-0.8-0.3
	c-0.2-0.2-0.3-0.4-0.3-0.6l-0.1-1c0-1.1-0.1-2.3-0.1-3.5c0-1.2-0.1-2.4-0.2-3.5v-3l0.1-1.2c0.1-0.3,0.2-0.5,0.4-0.7
	c0.3-0.2,0.7-0.3,1.1-0.3h0.6v-0.3l-0.1-0.3l-1.1,0.1H617c0,0.5-0.2,1.1-0.5,1.8l-1.2,2.6l-2.2,4.4c-0.5,1.2-1.1,2.3-1.8,3.5
	l-1.6-3.2l-2.7-5.3c-0.3-0.7-0.6-1.4-0.8-2.1c-0.2-0.5-0.3-1.1-0.3-1.6H604.7z M591.9,290.3v1.8c-0.1,0.8-0.6,1.1-1.4,1.1l-0.5,0.1
	c-0.2,0.2-0.2,0.5,0,0.6l2.9-0.1l3.1,0.1l0.2-0.3l-0.1-0.3l-0.6-0.1c-0.6,0-0.9-0.1-1.1-0.3c-0.2-0.2-0.4-0.4-0.4-0.8
	c-0.1-0.6-0.1-1.2,0-1.8v-2.2c-0.8,0-1.4,0-2-0.1L591.9,290.3L591.9,290.3z M589.9,278.8c0,0.1,0,0.2,0.1,0.3l0.8,0.1
	c0.3,0,0.6,0.2,0.8,0.3c0.2,0.1,0.3,0.3,0.3,0.7l0.1,1.5v4.7h1.9V280l0.1-0.6c0-0.1,0.2-0.2,0.3-0.2l1-0.1c1.2,0,2.1,0.3,2.8,1
	c0.6,0.6,1,1.6,1,2.7c0,1.1-0.2,1.9-0.7,2.6c-0.6,0.6-1.3,1.1-2.1,1.2c-1,0.2-2.3,0.3-4,0.3c-1.5,0-3.2-0.1-5-0.3
	c2,0.4,3.5,0.7,4.5,0.8c2.2,0.3,4.4,0.1,6.5-0.5c0.5-0.3,1.2-0.6,1.8-1.1c0.4-0.3,0.7-0.7,1-1.2c0.2-0.5,0.3-1.1,0.4-1.8
	c0-0.7-0.2-1.5-0.5-2.1c-0.3-0.6-0.8-1.1-1.3-1.4c-0.5-0.3-1.2-0.6-2-0.7c-0.8-0.1-1.6-0.2-2.6-0.2l-2.6,0.1l-2,0.1
	C590,278.6,589.9,278.7,589.9,278.8L589.9,278.8z M589.9,278.8"/>
</svg>
