<?xml version="1.0" encoding="utf-8"?>
<!-- Generator: Adobe Illustrator 25.2.1, SVG Export Plug-In . SVG Version: 6.00 Build 0)  -->
<svg version="1.1" id="Layer_1" xmlns="http://www.w3.org/2000/svg" xmlns:xlink="http://www.w3.org/1999/xlink" x="0px" y="0px"
	 viewBox="0 0 1080 1080" style="enable-background:new 0 0 1080 1080;" xml:space="preserve">
<style type="text/css">
	.st0{fill:#FFFFFF;}
</style>
<g>
	<path class="st0" d="M237.3,415.4l-2.7,6.5c-0.5,1.2-1.6,2-2.9,2h-95.2c-64.7,0.7-116.9,53.9-116.9,116.9c0,49.5,30.7,92,74.5,109
		c11.4,4.4,23.6,7.1,36.5,7.8l-0.6,12.1l0,0.1c-0.3,0-0.5,0-0.8,0c-13-0.7-25.7-3.4-37.6-7.9c-18.1-6.8-34.7-17.6-48.4-32
		c-23.1-24.2-35.8-55.8-35.8-89c0-34.4,13.5-66.8,37.9-91.2c24.5-24.5,56.9-37.9,91.2-37.9h98.2C236.7,411.6,238,413.6,237.3,415.4z
		"/>
	<path class="st0" d="M380.2,426.4l-93.4,228.6c-3.6,8.9-12.3,14.7-21.9,14.7h-26.2c-7.6,0-12.8-7.7-9.9-14.8l93.4-228.6
		c3.6-8.9,12.3-14.7,21.9-14.7h26.2C377.9,411.6,383.1,419.3,380.2,426.4z"/>
	<path class="st0" d="M186.8,565.2l-9.1,22.2L150,655.2c-2.2,5.2-6.1,9.3-10.9,11.9c-2,1-4.1,1.8-6.4,2.2c-0.9,0.2-1.8,0.3-2.8,0.4
		c-0.3,0-0.5,0-0.8,0c-13-0.7-25.7-3.4-37.6-7.9c-0.3-1.2-0.5-2.6-0.3-3.9c0.1-1,0.3-2,0.8-3l2.1-5.2l1.3-3.3l41.3-101
		c0,0,0-0.1,0-0.1c3.5-8.5,11.6-14.2,20.8-14.6l0.3,0c0.2,0,0.4,0,0.6,0c3.2,0,6.2,1.6,8.1,4.4L186.8,565.2z"/>
	<path class="st0" d="M406.6,545.4l-44.8,109.7c-3.7,8.8-12.3,14.5-21.8,14.5h-26.2c-7.6,0-12.8-7.7-9.9-14.8l44.8-109.5
		c0,0,0-0.1,0-0.1c3.7-8.9,12.3-14.7,21.9-14.7h26.2C404.3,530.7,409.5,538.4,406.6,545.4z"/>
	<path class="st0" d="M530.3,426.4l-93.4,228.6c-3.6,8.9-12.3,14.7-21.9,14.7h-26.2c-7.6,0-12.8-7.7-9.9-14.8l93.4-228.6
		c3.6-8.9,12.3-14.7,21.9-14.7h26.2C528,411.6,533.2,419.3,530.3,426.4z"/>
	<path class="st0" d="M770.4,426.4L677,654.9c-3.2,7.8-10.3,13.3-18.5,14.5h0c0,0,0,0,0,0c-0.9,0.1-1.7,0.2-2.6,0.2h-0.1
		c-3-0.1-5.9-1.6-7.8-4.3c0,0,0,0,0,0l-0.6-0.8l-0.1-0.1l-20.1-29.9l9.1-22.2l76-185.9c3.6-8.9,12.3-14.7,21.9-14.7h26.2
		C768.1,411.6,773.3,419.3,770.4,426.4z"/>
	<path class="st0" d="M558.1,545.4l-44.8,109.7c-3.7,8.8-12.3,14.5-21.8,14.5h-26.2c-7.6,0-12.8-7.7-9.9-14.8L500,545.4
		c0,0,0-0.1,0-0.1c3.7-8.9,12.3-14.7,21.9-14.7h26.2C555.8,530.7,561,538.4,558.1,545.4z"/>
	<path class="st0" d="M243.9,668c-1.4,0.9-2.9,1.5-4.5,1.6c-3.5,0.4-7.2-1.2-9.3-4.3c0,0,0,0,0,0l-0.6-0.8l-0.1-0.1l-51.7-77.1
		L150,546.1c-3.1-4.6-1.8-10.7,2.7-13.8c1.5-1,3.1-1.5,4.8-1.7l0.3,0c0.1,0,0.3,0,0.4,0c0,0,0.1,0,0.1,0c3.2,0,6.2,1.6,8.1,4.4
		l20.2,30.1l48.9,72.8l10.9,16.3C249.6,658.8,248.4,665,243.9,668z"/>
	<path class="st0" d="M842.1,665.9l2.7-6.5c0.5-1.2,1.6-2,2.9-2h95.2c64.7-0.7,116.9-53.9,116.9-116.9c0-49.5-30.7-92-74.5-109
		c-11.4-4.4-23.6-7.1-36.5-7.8l0.6-12.1l0-0.1c0.3,0,0.5,0,0.8,0c13,0.7,25.7,3.4,37.6,7.9c18.1,6.8,34.7,17.6,48.4,32
		c23.1,24.2,35.8,55.8,35.8,89c0,34.4-13.5,66.8-37.9,91.2c-24.5,24.5-56.9,37.9-91.2,37.9h-98.2
		C842.7,669.7,841.4,667.8,842.1,665.9z"/>
	<path class="st0" d="M699.1,654.9l93.4-228.6c3.6-8.9,12.3-14.7,21.9-14.7h26.2c7.6,0,12.8,7.7,9.9,14.8L757.2,655
		c-3.6,8.9-12.3,14.7-21.9,14.7h-26.2C701.4,669.7,696.3,662,699.1,654.9z"/>
	<path class="st0" d="M892.6,516.1l9.1-22.2l27.7-67.8c2.2-5.2,6.1-9.3,10.9-11.9c2-1,4.1-1.8,6.4-2.2c0.9-0.2,1.8-0.3,2.8-0.4
		c0.3,0,0.5,0,0.8,0c13,0.7,25.7,3.4,37.6,7.9c0.3,1.2,0.5,2.6,0.3,3.9c-0.1,1-0.3,2-0.8,3l-2.1,5.2l-1.3,3.3l-41.3,101
		c0,0,0,0.1,0,0.1c-3.5,8.5-11.6,14.2-20.8,14.6l-0.3,0c-0.2,0-0.4,0-0.6,0c-3.2,0-6.2-1.6-8.1-4.4L892.6,516.1z"/>
	<path class="st0" d="M835.5,413.3c1.4-0.9,2.9-1.5,4.5-1.6c3.5-0.4,7.2,1.2,9.3,4.3c0,0,0,0,0,0l0.6,0.8l0.1,0.1l51.7,77.1
		l27.7,41.2c3.1,4.6,1.8,10.7-2.7,13.8c-1.5,1-3.1,1.5-4.8,1.7l-0.3,0c-0.1,0-0.3,0-0.4,0c0,0-0.1,0-0.1,0c-3.2,0-6.2-1.6-8.1-4.4
		l-20.2-30.1l-48.9-72.8l-10.9-16.3C829.7,422.5,831,416.3,835.5,413.3z"/>
	<path class="st0" d="M581.6,532.2c1.1,0.7,2.1,1.7,2.9,2.9l10.8,16.1l0.1,0.1l9.3,13.8l31.6,47.1l17.3,25.7l10.9,16.3
		c3.1,4.6,1.8,10.7-2.7,13.8c-1,0.7-2.2,1.2-3.3,1.4h0c0,0,0,0,0,0c-0.4,0.1-0.8,0.1-1.1,0.2c-0.5,0.1-1,0.1-1.5,0h-0.1
		c-3-0.1-5.9-1.6-7.8-4.3c0,0,0,0,0,0l-0.6-0.8l-0.1-0.1l-20.1-29.9l-31.6-47.1l-19.3-28.7l-0.5-0.8c-0.1-0.2-0.2-0.3-0.3-0.5
		c-1-1.6-1.6-3.4-1.6-5.3L581.6,532.2z"/>
	<path class="st0" d="M648.5,425.1l-13.9,33.1L601,538.1l-5.6,13.4l-1.9,4.5c-2.1,5-8,7.4-13.2,5.3c-1.6-0.6-2.9-1.6-3.9-2.8
		c-0.2-0.2-0.3-0.4-0.5-0.6c-0.1-0.1-0.2-0.3-0.3-0.5c-1.7-2.6-2.1-5.9-0.8-8.9c0,0,0,0,0,0l0.4-0.9l0-0.1l6.1-14.5l29.5-70.1
		l19-45.2c2.1-5,8-7.4,13.2-5.3c1.7,0.7,3.1,1.7,4.1,3l0.2,0.3c0.1,0.1,0.2,0.2,0.2,0.3c0,0,0.1,0.1,0.1,0.1
		C649.4,418.7,649.8,422,648.5,425.1z"/>
	<circle class="st0" cx="420.7" cy="434.1" r="22.5"/>
	<circle class="st0" cx="572.3" cy="434.1" r="22.5"/>
</g>
</svg>
