<?xml version="1.0" standalone="no"?>
<!DOCTYPE svg PUBLIC "-//W3C//DTD SVG 20010904//EN"
 "http://www.w3.org/TR/2001/REC-SVG-20010904/DTD/svg10.dtd">
<svg version="1.0" xmlns="http://www.w3.org/2000/svg"
 width="100.000000pt" height="100.000000pt" viewBox="0 0 100.000000 100.000000"
 preserveAspectRatio="xMidYMid meet">

<g transform="translate(0.000000,100.000000) scale(0.100000,-0.100000)"
fill="#000000" stroke="none">
<path d="M313 888 c-30 -33 -55 -95 -40 -101 23 -8 162 -7 175 1 10 7 6 21
-16 63 -25 48 -32 54 -63 57 -26 2 -40 -3 -56 -20z"/>
<path d="M210 868 c-63 -39 -71 -53 -33 -62 15 -4 36 -9 46 -12 9 -3 17 0 17
6 0 6 9 30 20 52 11 23 20 43 20 45 0 9 -21 0 -70 -29z"/>
<path d="M463 848 c12 -29 22 -54 22 -55 0 -1 20 3 43 9 24 6 41 16 39 22 -5
14 -76 63 -104 71 l-22 6 22 -53z"/>
<path d="M101 747 c-12 -24 -21 -55 -21 -70 0 -27 1 -27 70 -27 l70 0 0 29 c0
16 3 42 6 57 5 28 3 30 -40 42 -63 17 -62 17 -85 -31z"/>
<path d="M532 777 c-37 -9 -43 -13 -38 -31 3 -12 6 -38 6 -58 l0 -38 75 0 75
0 -6 28 c-12 51 -43 112 -56 111 -7 -1 -32 -6 -56 -12z"/>
<path d="M256 753 c-3 -4 -6 -28 -6 -55 l0 -48 116 0 117 0 -7 38 c-3 20 -6
45 -6 54 0 15 -13 17 -104 17 -57 0 -107 -3 -110 -6z"/>
<path d="M80 593 c0 -30 37 -113 51 -113 5 0 29 6 55 12 43 12 45 14 40 42 -3
15 -6 41 -6 57 l0 29 -70 0 c-69 0 -70 0 -70 -27z"/>
<path d="M252 568 l3 -53 42 -3 c34 -3 42 0 48 17 7 22 25 29 90 33 35 3 40 6
43 31 l3 27 -116 0 -116 0 3 -52z"/>
<path d="M500 590 l0 -30 70 0 c39 0 70 3 70 8 0 4 3 17 6 30 6 21 4 22 -70
22 l-76 0 0 -30z"/>
<path d="M374 527 c-3 -8 -4 -52 -2 -98 l3 -84 48 -3 c45 -3 47 -5 47 -32 0
-27 -2 -29 -47 -32 l-48 -3 -3 -93 -3 -92 276 0 276 0 -3 93 -3 92 -42 3 c-40
3 -43 5 -43 32 0 27 3 29 43 32 l42 3 0 95 0 95 -268 3 c-217 2 -268 0 -273
-11z m74 -93 c-2 -22 -7 -39 -13 -39 -12 0 -19 60 -10 83 10 28 27 -3 23 -44z
m52 6 c0 -21 -4 -42 -10 -45 -6 -4 -10 13 -10 45 0 32 4 49 10 45 6 -3 10 -24
10 -45z m50 0 c0 -22 -4 -40 -10 -40 -5 0 -10 18 -10 40 0 22 5 40 10 40 6 0
10 -18 10 -40z m185 0 c0 -30 -35 -40 -55 -15 -10 12 -10 18 0 30 20 25 55 15
55 -15z m120 0 c0 -30 -35 -40 -55 -15 -10 12 -10 18 0 30 20 25 55 15 55 -15z
m-225 0 c0 -5 -11 -10 -25 -10 -14 0 -25 5 -25 10 0 6 11 10 25 10 14 0 25 -4
25 -10z m170 -130 l0 -30 -155 0 -155 0 0 30 0 30 155 0 155 0 0 -30z m-350
-130 c0 -29 -4 -40 -15 -40 -11 0 -15 11 -15 40 0 29 4 40 15 40 11 0 15 -11
15 -40z m50 0 c0 -22 -4 -40 -10 -40 -5 0 -10 18 -10 40 0 22 5 40 10 40 6 0
10 -18 10 -40z m50 0 c0 -22 -4 -40 -10 -40 -5 0 -10 18 -10 40 0 22 5 40 10
40 6 0 10 -18 10 -40z m185 0 c0 -30 -35 -40 -55 -15 -10 12 -10 18 0 30 20
25 55 15 55 -15z m120 20 c11 -17 -5 -50 -24 -50 -28 0 -46 26 -31 45 14 17
46 20 55 5z m-225 -20 c0 -5 -11 -10 -25 -10 -14 0 -25 5 -25 10 0 6 11 10 25
10 14 0 25 -4 25 -10z"/>
<path d="M278 482 c-16 -7 -16 -10 1 -47 10 -22 28 -49 40 -59 l21 -19 0 66
c0 63 -1 67 -22 66 -13 0 -31 -3 -40 -7z"/>
<path d="M188 468 c-21 -6 -38 -14 -38 -18 0 -19 115 -89 126 -77 4 4 -44 108
-49 106 -1 -1 -19 -6 -39 -11z"/>
</g>
</svg>
