<svg xmlns="http://www.w3.org/2000/svg" viewBox="0 0 500 500"><defs><style>.cls-1{fill:#f5f5f5;}.cls-2{fill:#e0e0e0;}.cls-15,.cls-3{fill:#ba68c8;}.cls-10,.cls-14,.cls-4{opacity:0.5;}.cls-14,.cls-20,.cls-21,.cls-5{fill:#fff;}.cls-21,.cls-6{opacity:0.2;}.cls-7{fill:#37474f;}.cls-8{fill:#455a64;}.cls-9{fill:#263238;}.cls-11{fill:#e6e6e6;}.cls-12{fill:#fafafa;}.cls-13{fill:#ebebeb;}.cls-15{font-size:11.6086px;font-family:Montserrat-ExtraBold, Montserrat ExtraBold;font-weight:800;letter-spacing:0.2em;}.cls-16{letter-spacing:0.196em;}.cls-17{letter-spacing:0.194em;}.cls-18{opacity:0.3;}.cls-19{fill:#ffa8a7;}.cls-20{opacity:0.4;}.cls-22{fill:#f28f8f;}</style></defs><g id="Floor"><ellipse class="cls-1" cx="250" cy="356.9738" rx="208.8225" ry="120.5637"/></g><g id="Shadows"><ellipse class="cls-2" cx="282.769" cy="415.3251" rx="45.1582" ry="26.0721"/><path class="cls-2" d="M259.3023,327.05,138.5128,396.8c-3.3982,1.9619-9.3341,1.7158-13.258-.55L82.3707,371.4913c-3.9239-2.2655-4.35-5.6926-.9518-7.6545l120.79-69.75c3.3983-1.9619,9.3341-1.7159,13.258.55l42.884,24.7591C262.2744,321.6605,262.7005,325.0876,259.3023,327.05Z"/></g><g id="Plants"><path class="cls-3" d="M389.365,351.405l9.5146,5.5268s-4.801-15.3256-2.1364-30.7429a29.548,29.548,0,0,1,3.87-10.2629c.7472-1.5531,6.4836-11.1693,1.4337-15.6023s-16.8991,4.3848-16.3677,28.13A92.2908,92.2908,0,0,0,389.365,351.405Z"/><path class="cls-4" d="M389.365,351.405l9.5146,5.5268s-4.801-15.3256-2.1364-30.7429a29.548,29.548,0,0,1,3.87-10.2629c.7472-1.5531,6.4836-11.1693,1.4337-15.6023s-16.8991,4.3848-16.3677,28.13A92.2908,92.2908,0,0,0,389.365,351.405Z"/><path class="cls-5" d="M393.7881,354.4063a.4326.4326,0,0,1-.4053-.2828c-.0361-.0991-3.6338-10.09-3.4443-26.1132.19-16.12,8.6611-24.7159,8.747-24.8008a.4316.4316,0,0,1,.6084.6123c-.083.0825-8.3066,8.4507-8.4921,24.1982-.1875,15.8516,3.3554,25.7085,3.3916,25.8062a.4318.4318,0,0,1-.2569.5537A.4265.4265,0,0,1,393.7881,354.4063Z"/><path class="cls-3" d="M396.7443,355.7229l15.7184,9.2444s7.1973-1.06,6.6525-7.8351-3.4687-8.3712.1724-11.3479,4.5806-3.174,4.4067-6.0916-2.1372-4.19-3.0607-5.3465-3.4981-3.5818-1.6864-7.1008,4.2656-6.918.6214-8.5309c-2.1754-.963-5.8341.2434-8.26,2.8179s-4.4255,4.4253-6.7234,5.023-7.0882.6453-6.9267,4.604,1.1892,5.3259.2287,7.0834C396.0785,341.5535,388.3521,343.3367,396.7443,355.7229Z"/><path class="cls-6" d="M396.7443,355.7229l15.7184,9.2444s7.1973-1.06,6.6525-7.8351-3.4687-8.3712.1724-11.3479,4.5806-3.174,4.4067-6.0916-2.1372-4.19-3.0607-5.3465-3.4981-3.5818-1.6864-7.1008,4.2656-6.918.6214-8.5309c-2.1754-.963-5.8341.2434-8.26,2.8179s-4.4255,4.4253-6.7234,5.023-7.0882.6453-6.9267,4.604,1.1892,5.3259.2287,7.0834C396.0785,341.5535,388.3521,343.3367,396.7443,355.7229Z"/><path class="cls-5" d="M403.1445,359.9189a.4324.4324,0,0,1-.43-.3964c-.0185-.2349-1.7294-23.6724,14.5538-39.0625a.4317.4317,0,0,1,.5937.6269c-15.9766,15.1006-14.3057,38.1343-14.2861,38.3652a.4329.4329,0,0,1-.3955.4654Z"/><path class="cls-5" d="M405.9639,339.834a.4317.4317,0,0,1-.4307-.4,13.3388,13.3388,0,0,0-4.7783-9.3428.4318.4318,0,0,1,.5049-.7007,13.9677,13.9677,0,0,1,5.1347,9.98.4324.4324,0,0,1-.3984.4624Z"/><path class="cls-5" d="M404.8027,343.833a.4317.4317,0,0,1-.3213-.72c.17-.1895,4.2676-4.62,13.7461-3.3184a.4317.4317,0,1,1-.1171.8555c-8.9922-1.2344-12.9483,2.9985-12.9874,3.0405A.4291.4291,0,0,1,404.8027,343.833Z"/><path class="cls-3" d="M101.1244,337.9429l-4.6989,9.9494s-4.7422-15.3439-15.684-26.5274a29.5469,29.5469,0,0,0-9.01-6.2554c-1.4965-.8549-11.6762-5.5186-10.0331-12.0342s16.4035-5.9776,29.4384,13.8766A92.29,92.29,0,0,1,101.1244,337.9429Z"/><path class="cls-4" d="M101.1244,337.9429l-4.6989,9.9494s-4.7422-15.3439-15.684-26.5274a29.5469,29.5469,0,0,0-9.01-6.2554c-1.4965-.8549-11.6762-5.5186-10.0331-12.0342s16.4035-5.9776,29.4384,13.8766A92.29,92.29,0,0,1,101.1244,337.9429Z"/><path class="cls-5" d="M98.94,343a.4317.4317,0,0,1-.418-.3242c-.0264-.1006-2.7-10.2276-11.8486-23.1743C77.585,306.64,66.0654,304.4146,65.95,304.3936a.4318.4318,0,0,1,.1543-.85c.1182.0215,11.9707,2.2935,21.2734,15.4595,9.2471,13.0874,11.9532,23.3555,11.98,23.4575A.4319.4319,0,0,1,98.94,343Z"/><path class="cls-3" d="M97.4978,345.6854,89.8,362.2161s-6.5282,3.2105-9.9236-2.6774-1.8933-8.8613-6.5805-9.2466-5.5728-.0146-7.085-2.5158-.6176-4.6631-.5133-6.1392.8484-4.9341-2.64-6.804-7.4377-3.2764-5.3519-6.6723c1.2449-2.0272,4.9421-3.11,8.4-2.3658s6.1551,1.1331,8.3864.3214,6.2029-3.49,8.3161-.1389,2.0426,5.06,3.8306,5.9626C90.0066,333.64,97.3807,330.7243,97.4978,345.6854Z"/><path class="cls-6" d="M97.4978,345.6854,89.8,362.2161s-6.5282,3.2105-9.9236-2.6774-1.8933-8.8613-6.5805-9.2466-5.5728-.0146-7.085-2.5158-.6176-4.6631-.5133-6.1392.8484-4.9341-2.64-6.804-7.4377-3.2764-5.3519-6.6723c1.2449-2.0272,4.9421-3.11,8.4-2.3658s6.1551,1.1331,8.3864.3214,6.2029-3.49,8.3161-.1389,2.0426,5.06,3.8306,5.9626C90.0066,333.64,97.3807,330.7243,97.4978,345.6854Z"/><path class="cls-5" d="M94.3633,352.8486a.4308.4308,0,0,1-.374-.2163c-.1153-.2007-11.8086-20.1162-33.5332-23.4863a.4314.4314,0,1,1,.1328-.8525c22.1416,3.434,34.0312,23.7041,34.1484,23.9082a.432.432,0,0,1-.374.6469Z"/><path class="cls-5" d="M80.6465,337.9087a.431.431,0,0,1-.3721-.2139,13.9616,13.9616,0,0,1-1.4355-11.1308.4314.4314,0,0,1,.8125.29,13.3446,13.3446,0,0,0,1.3672,10.4048.4314.4314,0,0,1-.3721.6494Z"/><path class="cls-5" d="M71.0605,345.5093a.4319.4319,0,0,1-.291-.75c7.0635-6.4478,12.9561-5.1245,13.2022-5.0659a.4314.4314,0,0,1-.2.8393c-.0576-.0127-5.7168-1.2549-12.42,4.8643A.4308.4308,0,0,1,71.0605,345.5093Z"/></g><g id="Device"><path class="cls-7" d="M97.6077,136.5046a16.5938,16.5938,0,0,1,8.297-14.3709L211.4235,61.2124a5.4351,5.4351,0,0,1,7.8934,3.06,9.4051,9.4051,0,0,0-4.3414-5.97L214.6,58.079a16.9649,16.9649,0,0,0-8.681-2.3894v.0016a5.3838,5.3838,0,0,0-2.7825.7345L97.6173,117.3469a16.594,16.594,0,0,0-8.297,14.3709V359.9119a5.4338,5.4338,0,0,0,8.1507,4.7056l.1367-.0788Z"/><path class="cls-8" d="M211.2769,308.4831,105.7582,369.4044a5.4337,5.4337,0,0,1-8.1505-4.7057V136.5046a16.5938,16.5938,0,0,1,8.297-14.3709L211.4235,61.2124a5.4335,5.4335,0,0,1,8.15,4.7057V294.1123A16.5942,16.5942,0,0,1,211.2769,308.4831Z"/><path class="cls-9" d="M97.6077,364.6987V136.5046a16.575,16.575,0,0,1,1.64-7.1824L91.0894,124.27a16.5761,16.5761,0,0,0-1.7691,7.4481v230.1a5.2276,5.2276,0,0,0,2.5525,4.4911l4.2066,2.5055a9.4165,9.4165,0,0,0,4.8188,1.3263h2.0774v-.0018A5.4388,5.4388,0,0,1,97.6077,364.6987Z"/><path class="cls-7" d="M207.6454,83.1465V274.9459a14.6539,14.6539,0,0,1-7.3266,12.69L107.14,341.4332a4.7491,4.7491,0,0,1-2.311.6411,4.8059,4.8059,0,0,0,6.8081,2.2445l93.1789-53.7969a14.6534,14.6534,0,0,0,7.3267-12.69V87.9324A4.7944,4.7944,0,0,0,207.6454,83.1465Z"/><path class="cls-3" d="M104.8288,342.0743a4.7491,4.7491,0,0,0,2.311-.6411l93.179-53.7969a14.6539,14.6539,0,0,0,7.3266-12.69V83.1465a6.3122,6.3122,0,0,0-2.7.6306l-93.1789,53.7968a14.6538,14.6538,0,0,0-7.3269,12.69V340.1634a4.79,4.79,0,0,0,.4021,1.9364Z"/><g class="cls-10"><path class="cls-5" d="M104.8288,342.0743a4.7491,4.7491,0,0,0,2.311-.6411l93.179-53.7969a14.6539,14.6539,0,0,0,7.3266-12.69V83.1465a6.3122,6.3122,0,0,0-2.7.6306l-93.1789,53.7968a14.6538,14.6538,0,0,0-7.3269,12.69V340.1634a4.79,4.79,0,0,0,.4021,1.9364Z"/></g><path class="cls-9" d="M143.8235,109.4628a3.7092,3.7092,0,0,1-1.6779,2.9064c-.9266.5349-1.6779.1012-1.6779-.9689a3.7088,3.7088,0,0,1,1.6779-2.9061C143.0722,107.9592,143.8235,108.3929,143.8235,109.4628Z"/><path class="cls-9" d="M150.0655,105.8591a3.7083,3.7083,0,0,1-1.6779,2.9062c-.9266.535-1.6779.1013-1.6779-.9687a3.7091,3.7091,0,0,1,1.6779-2.9063C149.3144,104.3553,150.0655,104.789,150.0655,105.8591Z"/><path class="cls-9" d="M175.2606,93.25l-20.2951,11.7177c-.8026.4633-1.4532-.0286-1.4532-1.0987h0a3.48,3.48,0,0,1,1.4532-2.7763l20.2951-11.7174c.8027-.4634,1.4532.0284,1.4532,1.0984h0A3.4794,3.4794,0,0,1,175.2606,93.25Z"/><path class="cls-9" d="M171.827,315.682h0c1.2123,0,1.9956,1.2856,1.9956,3.2751,0,3.1269-1.9557,6.8973-4.27,8.2338l-9.7072,5.6045a2.9424,2.9424,0,0,1-1.4456.4511c-1.2124,0-1.9958-1.2854-1.9958-3.275,0-3.1266,1.9556-6.8973,4.2706-8.2339l9.707-5.6043a2.9457,2.9457,0,0,1,1.4459-.4513m0-.8292a3.7562,3.7562,0,0,0-1.86.5623L160.26,321.02c-2.5877,1.494-4.6853,5.5019-4.6853,8.952,0,2.569,1.1627,4.1043,2.8251,4.1043a3.7557,3.7557,0,0,0,1.86-.5624l9.7071-5.6044c2.5877-1.4939,4.6853-5.5018,4.6853-8.9519,0-2.5691-1.1628-4.1044-2.8252-4.1043Z"/></g><g id="Screen"><path class="cls-11" d="M118.1851,163.7072V378.6943c0,3.894,1.4309,6.51,3.6182,7.369l.0613.02.01.01,9.2906,5.09-.0512-8.2685L130.082,159.9868l-9.8118-5.0184A21.19,21.19,0,0,0,118.1851,163.7072Z"/><path class="cls-11" d="M131.67,392.0313l-10.0556-5.51c-2.4922-1.0293-3.9288-3.9356-3.9288-7.8272V163.707a21.7563,21.7563,0,0,1,2.1319-8.95l.22-.47,10.544,5.3931.0009.3042,1.0323,222.9287Zm-9.5547-6.3755,8.545,4.6816-.0459-7.4189-1.0313-222.625-9.0732-4.6412a20.5273,20.5273,0,0,0-1.8243,8.0547V378.6943c0,3.5113,1.2344,6.0923,3.3008,6.9038l.128.06Z"/><path class="cls-2" d="M120.27,154.9684l9.8118,5.0184L235.0894,98.8977l7.0114-4.078-9.6892-5.4579-.276-.1635v-.01c-1.5433-.93-3.567-.8687-5.795.419l-99.3963,57.3892A17.91,17.91,0,0,0,120.27,154.9684Z"/><path class="cls-2" d="M130.082,160.4868a.4966.4966,0,0,1-.2275-.0547l-9.8115-5.0185a.5.5,0,0,1-.2256-.6558,18.4075,18.4075,0,0,1,6.8769-8.1948l99.3965-57.3892c2.3-1.3286,4.5391-1.478,6.3028-.414a.4751.4751,0,0,1,.0732.0537l.1992.1186,9.68,5.4522a.5.5,0,0,1,.0059.8677L130.333,160.4189A.4936.4936,0,0,1,130.082,160.4868Zm-9.15-5.7422,9.1348,4.6729L241.0938,94.8267l-9.2129-5.1988a.4831.4831,0,0,1-.0752-.0537c-1.4278-.8193-3.2754-.6543-5.2149.4658l-99.3965,57.3892A17.1087,17.1087,0,0,0,120.9316,154.7446Z"/><path class="cls-12" d="M127.8129,169.1139V383.13c0,3.3728,1.0733,5.7952,2.79,6.93l.5622.3066c1.4922.7052,3.3627.552,5.3966-.6234l48.0474-27.739,51.3488-30.9066a18.6435,18.6435,0,0,0,8.7592-15.4646V101.6266c0-3.26-1.0017-5.6214-2.6166-6.8069a3.8213,3.8213,0,0,0-.8892-.5008,5.8456,5.8456,0,0,0-5.2534.695L136.562,153.37a14.9228,14.9228,0,0,0-6.48,6.6164A21.2691,21.2691,0,0,0,127.8129,169.1139Z"/><path class="cls-12" d="M235.9585,331.0967c-20.4529,12.201-73.6609,43.9568-100,59.8211a5.1714,5.1714,0,0,1-7.8383-4.4354V166.4157a14.3542,14.3542,0,0,1,7.0962-12.384L236.4365,94.71a5.1743,5.1743,0,0,1,7.7905,4.4642V316.5329A16.9543,16.9543,0,0,1,235.9585,331.0967Z"/><path class="cls-13" d="M235.7062,330.665q-24.0853,14.3679-48.1588,28.7556-14.252,8.519-28.4965,17.05-6.5078,3.8988-13.0123,7.803-2.8449,1.7079-5.6886,3.4175c-1.75,1.052-3.6147,2.55-5.5475,3.2217-3.209,1.1145-6.0982-1.4515-6.1826-4.62-.0136-.5109,0-1.024,0-1.535V182.9921c0-5.374-.0125-10.7482,0-16.1223a14.2822,14.2822,0,0,1,7.1362-12.575c2.32-1.3714,4.65-2.7254,6.9756-4.0881l32.7007-19.1648,38.7467-22.708c7.3492-4.3072,14.68-8.647,22.0484-12.9218,2.2818-1.3239,5.1545-1.1943,6.7409,1.1949a5.49,5.49,0,0,1,.7586,3.1587c.0061,1.9176,0,3.8353,0,5.7529V315.6931a17.0125,17.0125,0,0,1-8.0208,14.9719c-.5474.3363-.0457,1.2016.5047.8635a17.9648,17.9648,0,0,0,8.5161-15.6965V115.1107c0-5.2255.0556-10.4544,0-15.68a5.7641,5.7641,0,0,0-8.8782-4.9563c-2.4367,1.4054-4.8542,2.8449-7.281,4.2671l-33.601,19.6924L155.87,141.3476c-6.9132,4.0516-13.8486,8.0679-20.7406,12.1554a15.23,15.23,0,0,0-7.5093,13.3078c-.0053,1.8,0,3.5993,0,5.399V385.436c0,.3438-.0108.69,0,1.0332a5.74,5.74,0,0,0,7.4484,5.4083c1.8877-.6318,3.67-2.05,5.37-3.0722q2.9-1.7437,5.8013-3.4855,6.4845-3.8932,12.973-7.78,28.3661-16.9949,56.7641-33.9364,10.116-6.0393,20.2341-12.075A.5.5,0,0,0,235.7062,330.665Z"/><path class="cls-13" d="M135.2162,154.0317,236.4366,94.71a5.1742,5.1742,0,0,1,7.79,4.4642v9.5476l-.03.0019L128.12,175.7405v-9.3249A14.3542,14.3542,0,0,1,135.2162,154.0317Z"/><ellipse class="cls-3" cx="186.1734" cy="195.326" rx="37.1735" ry="21.4622" transform="translate(-76.0709 258.8929) rotate(-59.9998)"/><ellipse class="cls-14" cx="186.1734" cy="195.326" rx="37.1735" ry="21.4622" transform="translate(-76.0709 258.8929) rotate(-59.9998)"/><path class="cls-7" d="M181.4584,195.4428a1.18,1.18,0,0,1-1.18-1.18V186.49a11.5682,11.5682,0,0,1,5.3048-9.1885,4.0276,4.0276,0,0,1,6.4849,3.7439v7.7734a1.18,1.18,0,1,1-2.36,0v-7.7734a1.7423,1.7423,0,0,0-2.9453-1.7005,9.2718,9.2718,0,0,0-4.1252,7.1451v7.7734A1.18,1.18,0,0,1,181.4584,195.4428Z"/><path class="cls-3" d="M195.701,183.8065a1.7574,1.7574,0,0,0-1.6661.1856l-15.723,9.0777a5.0053,5.0053,0,0,0-1.6664,1.7387,6.7591,6.7591,0,0,0-1.0174,3.3894V211.81a2.5253,2.5253,0,0,0,.7826,2.0733,1.35,1.35,0,0,0,.2748.1581h0a1.776,1.776,0,0,0,1.6264-.2025l15.723-9.0775a6.4281,6.4281,0,0,0,2.6839-5.1281V186.0211A2.2959,2.2959,0,0,0,195.701,183.8065Z"/><path class="cls-8" d="M187.9607,197.9911l1.5152,4.3577-5.3275,3.0753,1.3336-5.3818.1881-.7624c-.9.0256-1.5217-.67-1.5217-1.8949a4.7214,4.7214,0,0,1,.2489-1.4515,5.9169,5.9169,0,0,1,2.4149-3.1615c1.4706-.8485,2.6637-.1627,2.6637,1.5377a5.9052,5.9052,0,0,1-1.5249,3.6559Z"/><path class="cls-7" d="M185.482,200.0423l.1881-.7624c-.9.0256-1.5217-.67-1.5217-1.8949a4.7214,4.7214,0,0,1,.2489-1.4515l3.5634,2.0576,1.5152,4.3577Z"/><path class="cls-3" d="M224.9473,245.6565,147.4,290.4286c-3.208,1.852-5.8086-.114-5.8086-4.3913V274.2894c0-4.2773,2.6006-9.2463,5.8086-11.0984l77.5476-44.7721c3.2079-1.8521,5.8085.1139,5.8085,4.3912V234.558C230.7558,238.8354,228.1552,243.8043,224.9473,245.6565Z"/><rect class="cls-12" x="159.8545" y="262.1333" width="1.5" height="12.4341"/><rect class="cls-12" x="154.3877" y="267.6005" width="12.4345" height="1.4998" transform="matrix(0.866, -0.5001, 0.5001, 0.866, -112.6703, 116.2763)"/><rect class="cls-12" x="159.8546" y="263.9535" width="1.4999" height="8.7932" transform="translate(-152.0957 273.2669) rotate(-60.0008)"/><rect class="cls-12" x="152.99" y="267.6002" width="15.2291" height="1.4998" transform="matrix(0.5001, -0.866, 0.866, 0.5001, -152.0961, 273.2378)"/><rect class="cls-12" x="185.4238" y="248.2065" width="1.5" height="12.4346"/><rect class="cls-12" x="179.9561" y="253.6737" width="12.4344" height="1.4998" transform="translate(-102.2794 127.1959) rotate(-30.0045)"/><rect class="cls-12" x="185.4235" y="250.0275" width="1.4998" height="8.7922" transform="translate(-127.2502 288.4463) rotate(-60.0007)"/><rect class="cls-12" x="178.559" y="253.674" width="15.2287" height="1.4998" transform="matrix(0.5001, -0.866, 0.866, 0.5001, -127.2535, 288.4179)"/><rect class="cls-12" x="210.9922" y="234.2803" width="1.5" height="12.4341"/><rect class="cls-12" x="205.5254" y="239.7474" width="12.4345" height="1.4998" transform="matrix(0.866, -0.5, 0.5, 0.866, -91.8852, 138.1059)"/><rect class="cls-12" x="210.9928" y="236.1012" width="1.4998" height="8.7922" transform="translate(-102.4047 303.6268) rotate(-60.0007)"/><rect class="cls-12" x="204.1283" y="239.7471" width="15.2287" height="1.4998" transform="translate(-102.4081 303.6086) rotate(-59.9974)"/><path class="cls-3" d="M227.2538,261.8428c1.0376,0,1.5021,1.5512,1.5021,3.0883V276.679c0,3.5723-2.2021,7.8615-4.8086,9.3663L146.4,330.8174a2.7526,2.7526,0,0,1-1.3061.4291c-1.0378,0-1.5024-1.551-1.5024-3.0882V316.41c0-3.5722,2.202-7.8615,4.8085-9.3664l77.5476-44.772a2.7527,2.7527,0,0,1,1.3065-.4291m-.0005-2a4.6572,4.6572,0,0,0-2.306.697L147.4,305.3119c-3.208,1.8522-5.8085,6.821-5.8085,11.0984v11.748c0,3.185,1.4415,5.0882,3.5024,5.0882a4.6571,4.6571,0,0,0,2.3061-.6971l77.5476-44.7721c3.208-1.852,5.8086-6.821,5.8086-11.0983V264.9311c0-3.1851-1.4417-5.0885-3.5026-5.0883Z"/><text class="cls-15" transform="matrix(0.866, -0.5, 0, 1, 167.1501, 310.9482)">e<tspan class="cls-16" x="8.1376" y="0">n</tspan><tspan class="cls-17" x="16.8553" y="0">t</tspan><tspan x="22.95" y="0">er</tspan></text></g><g id="Icons"><path class="cls-8" d="M341.391,128.31a4.9956,4.9956,0,0,0,2.3107,3.928c1.2762.7231,2.3108.1368,2.3108-1.3093a4.9948,4.9948,0,0,0-2.3108-3.9279C342.4256,126.2773,341.391,126.8634,341.391,128.31Z"/><path class="cls-8" d="M310.417,137.625a11.834,11.834,0,0,1-5.7461-1.7217l-7.332-4.1543a.5.5,0,0,1,.4922-.87l7.332,4.1543c3.1621,1.7915,6.1,2.08,8.2715.814,2.125-1.2388,3.2959-3.8511,3.2959-7.3555,0-3.8755,1.3466-6.7949,3.7929-8.22,2.4932-1.4527,5.7842-1.1655,9.2666.8081l11.8487,6.7134a.5.5,0,0,1-.4922.87L329.2979,121.95c-3.1622-1.791-6.0987-2.08-8.2706-.814-2.1259,1.2388-3.2968,3.8511-3.2968,7.356,0,3.875-1.3467,6.7939-3.793,8.2192A6.8977,6.8977,0,0,1,310.417,137.625Z"/><path class="cls-8" d="M294.3127,129.5062a4.04,4.04,0,0,0,1.8689,3.1767c1.0321.5849,1.8688.1107,1.8688-1.059a4.0393,4.0393,0,0,0-1.8688-3.1765C295.15,127.8625,294.3127,128.3366,294.3127,129.5062Z"/><path class="cls-8" d="M341.391,215.7169a4.9953,4.9953,0,0,0,2.3107,3.9279c1.2762.7232,2.3108.1369,2.3108-1.3093a4.9953,4.9953,0,0,0-2.3108-3.928C342.4256,213.6844,341.391,214.2706,341.391,215.7169Z"/><path class="cls-8" d="M341.4805,216.811a.4966.4966,0,0,1-.2461-.0649l-11.8487-6.7134c-6.93-3.9267-12.5664-13.5112-12.5664-21.3657,0-7.5332-5.41-16.7275-12.06-20.4956l-7.4209-4.2046a.5.5,0,0,1,.4922-.87l7.4209,4.2046c6.93,3.9267,12.5673,13.5112,12.5673,21.3657,0,7.5332,5.4092,16.7275,12.0586,20.4956l11.8487,6.7134a.5.5,0,0,1-.2461.935Z"/><path class="cls-8" d="M294.3127,161.5411a4.04,4.04,0,0,0,1.8689,3.1766c1.0321.5848,1.8688.1107,1.8688-1.0589a4.04,4.04,0,0,0-1.8688-3.1766C295.15,159.8973,294.3127,160.3713,294.3127,161.5411Z"/><path class="cls-3" d="M412.5937,118.8839l-48.98-27.7412a2.9856,2.9856,0,0,0-3.5579-.0065l-4.232,2.9264,2.886,3.5681v51.6255c0,3.611,2.1955,7.806,4.9039,9.37l47.7635,27.0392.2248,3.845,4.4588-3.0561a4.6089,4.6089,0,0,0,1.4362-3.7942V128.2537C417.4975,124.6425,415.3019,120.4476,412.5937,118.8839Z"/><path class="cls-18" d="M412.5937,118.8839l-48.98-27.7412a2.9856,2.9856,0,0,0-3.5579-.0065l-4.232,2.9264,2.886,3.5681v51.6255c0,3.611,2.1955,7.806,4.9039,9.37l47.7635,27.0392.2248,3.845,4.4588-3.0561a4.6089,4.6089,0,0,0,1.4362-3.7942V128.2537C417.4975,124.6425,415.3019,120.4476,412.5937,118.8839Z"/><path class="cls-3" d="M408.43,189.2329l-48.98-27.7412c-2.7083-1.5637-4.9038-5.7586-4.9038-9.37V97.7158c0-3.6111,2.1955-5.2709,4.9038-3.7072L408.43,121.75c2.7083,1.5637,4.9039,5.7586,4.9039,9.37v54.4062C413.3336,189.1369,411.138,190.7966,408.43,189.2329Z"/><path class="cls-5" d="M398.1377,142.1538a.5014.5014,0,0,1-.4834-.3706,40.0108,40.0108,0,0,0-4.7959-10.92.5.5,0,1,1,.8437-.5362,41.0051,41.0051,0,0,1,4.918,11.1973.4993.4993,0,0,1-.4824.6294Z"/><path class="cls-5" d="M399.2627,152.3164l-.0342-.001a.5.5,0,0,1-.4658-.5317q.0528-.8072.0537-1.6636a30.2469,30.2469,0,0,0-.4512-5.1045.5.5,0,0,1,.9864-.1689,31.324,31.324,0,0,1,.4648,5.2734q0,.8892-.0557,1.729A.5.5,0,0,1,399.2627,152.3164Z"/><path class="cls-5" d="M368.6748,135.7222a.5.5,0,0,1-.4971-.4566c-.0761-.8672-.1142-1.7324-.1142-2.5708,0-4.8506,1.3076-8.8579,3.6816-11.2837a.5.5,0,0,1,.7149.6993c-2.19,2.2382-3.3965,5.997-3.3965,10.5844,0,.81.0371,1.645.11,2.4839a.5.5,0,0,1-.4541.5415C368.7041,135.7217,368.69,135.7222,368.6748,135.7222Z"/><path class="cls-5" d="M390.7891,127.6333a.4975.4975,0,0,1-.3868-.1836,24.3508,24.3508,0,0,0-6.708-5.8789c-3.3222-1.8823-6.4394-2.2441-9.0107-1.0488a.5.5,0,0,1-.4219-.9073c2.8779-1.3359,6.3086-.9624,9.9248,1.086a25.3411,25.3411,0,0,1,6.9893,6.1162.5.5,0,0,1-.3867.8164Z"/><path class="cls-5" d="M372.1221,136.1055a.5011.5011,0,0,1-.5-.479q-.019-.4659-.0186-.9258c0-3.5523.87-6.4507,2.5156-8.3819a.5.5,0,0,1,.7618.6485c-1.49,1.748-2.2774,4.4223-2.2774,7.7334q0,.4395.0186.8838a.5011.5011,0,0,1-.4795.52Z"/><path class="cls-5" d="M376.0449,125.8071a.5.5,0,0,1-.2617-.9258,6.6792,6.6792,0,0,1,4.2451-.9252.5.5,0,1,1-.0976.9951,5.6813,5.6813,0,0,0-3.6241.7822A.5013.5013,0,0,1,376.0449,125.8071Z"/><path class="cls-5" d="M398.1377,158.75a.5016.5016,0,0,1-.4639-.3125l-.5859-1.45a23.8293,23.8293,0,0,1-1.8115-8.8359c0-8.4805-5.1963-18.2945-11.5821-21.9131a.5.5,0,0,1,.4922-.87c6.667,3.7773,12.09,13.9814,12.09,22.7466a22.8561,22.8561,0,0,0,1.7392,8.498l.586,1.45a.5005.5005,0,0,1-.4639.6875Z"/><path class="cls-5" d="M375.1807,153.0024a.5.5,0,0,1-.47-.3281,62.1474,62.1474,0,0,1-3.1074-14.6069.5.5,0,0,1,.4629-.5347.5211.5211,0,0,1,.5352.4624,61.0129,61.0129,0,0,0,3.0488,14.3355.5.5,0,0,1-.47.6718Z"/><path class="cls-5" d="M395.1953,162.1216a.5.5,0,0,1-.4687-.3262l-1.333-3.5918a32.2106,32.2106,0,0,1-2.1514-10.9927v-3.9321c0-4.6655-3.3506-10.3594-7.4688-12.6924-1.9238-1.09-3.6992-1.2719-5.0009-.5117-1.2745.7422-1.9756,2.3232-1.9756,4.4526v3.4712a46.9076,46.9076,0,0,0,3.3447,16.4932l1.6514,4.3027a.5.5,0,0,1-.9336.3584L379.208,154.85a47.9228,47.9228,0,0,1-3.4111-16.8516v-3.4712c0-2.5.8779-4.3881,2.4717-5.3169,1.625-.9467,3.7548-.7651,5.997.5059,4.3985,2.4917,7.9766,8.5757,7.9766,13.5625v3.9321a31.2128,31.2128,0,0,0,2.0889,10.6451l1.333,3.5918a.5.5,0,0,1-.295.6425A.4951.4951,0,0,1,395.1953,162.1216Z"/><path class="cls-5" d="M390.7891,163.5542a.5.5,0,0,1-.48-.3579l-.6973-2.3521a45.2026,45.2026,0,0,1-1.9951-12.7793v-6.083a8.69,8.69,0,0,0-4.0156-6.8222,2.567,2.567,0,0,0-2.542-.2842,2.4751,2.4751,0,0,0-.9805,2.2681c0,6.7524,2.0566,14.5439,5.791,21.9394l1.4053,2.7827a.5.5,0,1,1-.8926.4512l-1.4053-2.7827c-3.8037-7.5327-5.8984-15.4844-5.8984-22.3906a3.41,3.41,0,0,1,1.4775-3.1324,3.5015,3.5015,0,0,1,3.5372.2784,9.7937,9.7937,0,0,1,4.5234,7.6923v6.083a44.2069,44.2069,0,0,0,1.9541,12.4952l.6973,2.352a.4994.4994,0,0,1-.4795.6421Z"/><path class="cls-5" d="M385.1826,153.0024a.5.5,0,0,1-.4883-.395l-.46-2.1391a29.86,29.86,0,0,1-.6641-6.2554v-5.6358a.5.5,0,1,1,1,0v5.6358a28.7844,28.7844,0,0,0,.6426,6.0454l.46,2.1392a.5.5,0,0,1-.49.6049Z"/><path class="cls-5" d="M369.76,142.1538a.4989.4989,0,0,1-.4961-.4507l-.291-2.9248a.5.5,0,0,1,.4472-.5469.4929.4929,0,0,1,.5469.4483l.291,2.9248a.5.5,0,0,1-.4473.5469C369.793,142.1528,369.7764,142.1538,369.76,142.1538Z"/><path class="cls-3" d="M412.5937,211.5358l-48.98-27.7413a2.9859,2.9859,0,0,0-3.5579-.0065l-4.232,2.9264,2.886,3.5682v51.6255c0,3.611,2.1955,7.806,4.9039,9.37l47.7635,27.0391.2248,3.8451,4.4588-3.0562a4.6087,4.6087,0,0,0,1.4362-3.7941V220.9055C417.4975,217.2944,415.3019,213.0994,412.5937,211.5358Z"/><path class="cls-18" d="M412.5937,211.5358l-48.98-27.7413a2.9859,2.9859,0,0,0-3.5579-.0065l-4.232,2.9264,2.886,3.5682v51.6255c0,3.611,2.1955,7.806,4.9039,9.37l47.7635,27.0391.2248,3.8451,4.4588-3.0562a4.6087,4.6087,0,0,0,1.4362-3.7941V220.9055C417.4975,217.2944,415.3019,213.0994,412.5937,211.5358Z"/><path class="cls-3" d="M408.43,281.8847l-48.98-27.7412c-2.7083-1.5635-4.9038-5.7585-4.9038-9.37V190.3676c0-3.611,2.1955-5.2709,4.9038-3.7072l48.98,27.7412c2.7083,1.5637,4.9039,5.7587,4.9039,9.37v54.4063C413.3336,281.7887,411.138,283.4484,408.43,281.8847Z"/><path class="cls-5" d="M365.4492,205.5479a.5.5,0,0,1-.5-.5v-3.3726a1.8836,1.8836,0,0,1,.9492-1.6416,1.9365,1.9365,0,0,1,1.9473-.0122l3.5352,2.0034a.5.5,0,0,1-.4922.87l-3.5352-2.0034a.9486.9486,0,0,0-.9512.0059.8831.8831,0,0,0-.4531.7778v3.3726A.5.5,0,0,1,365.4492,205.5479Z"/><path class="cls-5" d="M371.1348,251.9248a.4966.4966,0,0,1-.2461-.0649l-3.3028-1.8716a5.1746,5.1746,0,0,1-2.6367-4.4859v-3.1093a.5.5,0,0,1,1,0v3.1093a4.1733,4.1733,0,0,0,2.1289,3.6158l3.3028,1.8715a.5.5,0,0,1-.2461.9351Z"/><path class="cls-5" d="M400.9971,268.6309a1.9466,1.9466,0,0,1-.9629-.2569l-3.5352-2.0029a.5.5,0,0,1,.4922-.87l3.5352,2.0029a.9438.9438,0,0,0,.9511-.0059.8822.8822,0,0,0,.4532-.7773v-3.3726a.5.5,0,0,1,1,0v3.3726a1.8832,1.8832,0,0,1-.9493,1.6411A1.95,1.95,0,0,1,400.9971,268.6309Z"/><path class="cls-5" d="M402.4307,226.5024a.5.5,0,0,1-.5-.5v-3.1088a4.1735,4.1735,0,0,0-2.1289-3.6158l-3.3028-1.872a.5.5,0,0,1,.4922-.87l3.3027,1.8721a5.1745,5.1745,0,0,1,2.6368,4.4859v3.1088A.5.5,0,0,1,402.4307,226.5024Z"/><path class="cls-5" d="M369.8836,222.3709a69.1,69.1,0,0,0,2.4127,16.8037c3.808,14.3318,18.7933,23.1469,22.9119,13.4371a38.184,38.184,0,0,0,2.79-15.0535c0-8.8-6.2954-19.5-14.0608-23.9C376.0215,209.1745,369.7694,213.3372,369.8836,222.3709Z"/><polygon class="cls-2" points="383.439 230.38 383.439 239.802 379.346 236.738 383.439 230.38"/><path class="cls-2" d="M375.8256,224.7542a2.9156,2.9156,0,0,0,1.3488,2.2926c.7447.4221,1.3486.08,1.3486-.7642a2.9159,2.9159,0,0,0-1.3486-2.2926C376.43,223.568,375.8256,223.91,375.8256,224.7542Z"/><path class="cls-2" d="M388.3546,231.9282a2.9156,2.9156,0,0,0,1.3486,2.2926c.7449.4221,1.3487.08,1.3487-.7642a2.9155,2.9155,0,0,0-1.3487-2.2926C388.9584,230.742,388.3546,231.0841,388.3546,231.9282Z"/><path class="cls-2" d="M382.09,244.413l4.5709-.7753S385.6874,248.522,382.09,244.413Z"/></g><g id="Character"><path class="cls-19" d="M308.3778,253.204s7.289-.4909,11.4238,9.64c2.57,6.2975,5.7,16.03,7.7,22.494a10.4378,10.4378,0,0,1-3.26,11.0847l-12.71,10.6645-4.5483-8.27a86.2361,86.2361,0,0,1,8.6833-9.9237l-8.6833-26.05Z"/><path class="cls-3" d="M311.7386,284.1382s11.5777,1.5307,14.4721-7.4011c0,0-4.9619-13.0666-7.236-17.4082s-6.9285-7.4947-10.5969-6.1249S311.7386,284.1382,311.7386,284.1382Z"/><path class="cls-20" d="M311.7386,284.1382s11.5777,1.5307,14.4721-7.4011c0,0-4.9619-13.0666-7.236-17.4082s-6.9285-7.4947-10.5969-6.1249S311.7386,284.1382,311.7386,284.1382Z"/><path class="cls-7" d="M304.0127,401.4s-5.5049-4.714-7.6409-4.9349-5.84,3.4415-2.7117,9.7962c.87,1.7678,4.4058,3.6829,6.6155,7.0711s4.1984,5.9346,7.5866,5.4716,3.83-2.3781,3.6091-4.5879a52.2791,52.2791,0,0,0-1.2154-6.0029Z"/><path class="cls-9" d="M308.0428,417.7894c-3.4922.4772-5.5422-2.1476-7.82-5.64s-5.9219-5.4664-6.819-7.2885a13.1337,13.1337,0,0,1-.88-2.2756,11.2417,11.2417,0,0,0,1.1363,3.6759c.87,1.7677,4.4058,3.6828,6.6155,7.071s4.1984,5.9347,7.5866,5.4716c2.5953-.3547,3.4559-1.5639,3.62-3.1024C311.0344,416.7376,310.05,417.5151,308.0428,417.7894Z"/><path class="cls-13" d="M301.0771,407.4565a.5348.5348,0,0,1-.4707-.7856,8.5976,8.5976,0,0,1,5.1758-4.0571.5342.5342,0,1,1,.2364,1.042,7.6427,7.6427,0,0,0-4.47,3.519A.5337.5337,0,0,1,301.0771,407.4565Z"/><path class="cls-13" d="M299.0215,405.563a.5349.5349,0,0,1-.4707-.7857,8.5946,8.5946,0,0,1,5.1758-4.0571.5342.5342,0,1,1,.2363,1.042,7.6376,7.6376,0,0,0-4.47,3.5191A.534.534,0,0,1,299.0215,405.563Z"/><path class="cls-13" d="M296.6729,403.6689a.5348.5348,0,0,1-.4708-.7856,8.594,8.594,0,0,1,5.1749-4.0566.5342.5342,0,1,1,.2363,1.042,7.6386,7.6386,0,0,0-4.4688,3.5185A.5337.5337,0,0,1,296.6729,403.6689Z"/><path class="cls-7" d="M274.7324,416.8509s-7.3737-2.3922-9.5739-1.7325-4.3524,5.7991,1.3491,10.7885c1.586,1.3879,5.8645,1.8257,9.4393,4.2631s6.5852,4.1348,9.7407,2.2848,2.8977-3.9778,2.336-6.2858c-.7155-2.94-1.29-5.0761-1.29-5.0761Z"/><path class="cls-9" d="M285.449,431.3787c-3.2523,1.9068-6.3556.1575-10.04-2.355s-8.0948-2.9638-9.73-4.3944a14.0444,14.0444,0,0,1-1.8045-1.8854,12.0215,12.0215,0,0,0,2.6331,3.163c1.586,1.3878,5.8645,1.8256,9.4393,4.2631s6.5852,4.1348,9.7407,2.2847c2.4171-1.417,2.77-2.9649,2.3-4.5516C287.9709,429.11,287.3178,430.283,285.449,431.3787Z"/><path class="cls-13" d="M272.9727,423.6582a.4917.4917,0,0,1-.0528-.0029.5346.5346,0,0,1-.48-.5821,9.1517,9.1517,0,0,1,3.4277-6.1064.5343.5343,0,1,1,.6191.8711,8.2,8.2,0,0,0-2.9824,5.3379A.535.535,0,0,1,272.9727,423.6582Z"/><path class="cls-13" d="M276.0176,424.6548a.4917.4917,0,0,1-.0528-.0029.5333.5333,0,0,1-.48-.5821,9.1565,9.1565,0,0,1,3.4277-6.1064.5344.5344,0,0,1,.6192.8711,8.2054,8.2054,0,0,0-2.9825,5.3379A.535.535,0,0,1,276.0176,424.6548Z"/><path class="cls-13" d="M270.1641,422.6333a.4917.4917,0,0,1-.0528-.0029.5346.5346,0,0,1-.48-.5821,9.1517,9.1517,0,0,1,3.4277-6.1064.5343.5343,0,1,1,.6191.8711,8.2,8.2,0,0,0-2.9824,5.3379A.535.535,0,0,1,270.1641,422.6333Z"/><path class="cls-8" d="M310.6008,402.8049c.66-7.3019,2.0911-18.7421,2.6858-24.091a69.2234,69.2234,0,0,0-.5764-20.3111,16.6415,16.6415,0,0,1-.2305-4.8c1.4456-14.5417,2.3948-38.1095,1.5931-43.2893l-20.4127,4.32s2.4988,33.0664,3.5949,44.0648c1.1034,11.0721,5.2066,44.2024,5.2066,44.2024A7.397,7.397,0,0,0,310.6008,402.8049Z"/><path class="cls-19" d="M307.66,410.3124a3.8553,3.8553,0,0,0,2.5964-2.0993c0-1.1514.1339-3.0723.3449-5.4082a7.397,7.397,0,0,1-8.1392.0954l.7234,6.1415A5.288,5.288,0,0,0,307.66,410.3124Z"/><path class="cls-8" d="M287.6367,415.6351c.8327-11.05,2.4414-32.4676,2.6558-35.8313a53.08,53.08,0,0,0-.7041-11.1139,16.9743,16.9743,0,0,1,.0326-5.9942l8.9709-49.7737-24.6673-.3608-1.6138,52.1447a14.6372,14.6372,0,0,0,.077,2.019l5.2317,48.6,0,0S282.7223,419.6045,287.6367,415.6351Z"/><path class="cls-19" d="M283.5241,424.7613a4.6574,4.6574,0,0,0,3.6157-2.541s.1994-2.6367.4969-6.5852c-4.9144,3.9694-10.0171-.31-10.0171-.31l0,0,.7846,7.2879S279.5639,425.1323,283.5241,424.7613Z"/><path class="cls-3" d="M285.3234,256.5185l-5.8188,1.9888-6.2607,29.61.3028,26.2556s4.4712,3.5627,21.9344,3.5627c9.8031,0,16.1844-3.6917,18.5917-7.6217l-1.57-15.8622s1.57-15.63,1.57-23.3566.3447-14.0607-5.695-17.8908l-5.3769.4419Z"/><path class="cls-21" d="M285.3234,256.5185l-5.8188,1.9888-6.2607,29.61.3028,26.2556s4.4712,3.5627,21.9344,3.5627c9.8031,0,16.1844-3.6917,18.5917-7.6217l-1.57-15.8622s1.57-15.63,1.57-23.3566.3447-14.0607-5.695-17.8908l-5.3769.4419Z"/><path class="cls-22" d="M279.004,231.0727l-2.9143,5.7667a.6539.6539,0,0,0,.3769.9152l3.4582,1.1518Z"/><path class="cls-19" d="M283.04,221.399s-4.4194,2.3808-4.4194,16.0426c0,7.5129.5157,12.3005,4.4194,12.0059s15.136-1.7677,15.136-1.7677V221.399Z"/><path class="cls-22" d="M283.04,249.4475c1.3717-.1034,3.6506-.3531,6.0267-.6328V247.422a31.2814,31.2814,0,0,1-6.6789,2.022A4.064,4.064,0,0,0,283.04,249.4475Z"/><polygon class="cls-19" points="288.398 246.839 288.398 255.414 300.128 255.414 300.128 243.365 288.398 246.839"/><path class="cls-3" d="M288.3984,252.1475s4.2169,1.4984,7.6051.9092,4.1247-2.6516,4.1247-2.6516,1.1049-.0839,2.8727,3.2408a8.6079,8.6079,0,0,1-6.85,4.4194,26.5692,26.5692,0,0,1-10.8275-1.5468S286.9534,251.7222,288.3984,252.1475Z"/><path class="cls-20" d="M288.3984,252.1475s4.2169,1.4984,7.6051.9092,4.1247-2.6516,4.1247-2.6516,1.1049-.0839,2.8727,3.2408a8.6079,8.6079,0,0,1-6.85,4.4194,26.5692,26.5692,0,0,1-10.8275-1.5468S286.9534,251.7222,288.3984,252.1475Z"/><path class="cls-19" d="M262.2317,277.5858l-3.15,4.8468s-7.6495-3.4112-13.0248-5.4787a30.1281,30.1281,0,0,1-8.58-4.9394,46.0114,46.0114,0,0,1,1.0337-6.1979c.62-2.0943.8271-3.8516-1.0337-2.9214s-3.1012,4.5484-3.2045,4.9619c0,0-10.7507-10.8024-12.0946-10.57s-1.0326,1.86,1.8609,5.1944l2.8934,3.3349s-6.5943,3.7978-5.5192,7.9327,9.7584,5.9956,9.7584,5.9956,25.4243,19.5373,31.0607,16.0227,13.596-13.6452,13.596-13.6452Z"/><path class="cls-3" d="M281.8124,257.7525s4.6933,3.8589,1.6347,11.8373-10.865,17.6172-10.865,17.6172-8.186-2.5438-11.3433-9.1561l10.319-16.1465a8.6883,8.6883,0,0,1,6.7557-3.9977C279.2872,257.8426,280.4451,257.7876,281.8124,257.7525Z"/><path class="cls-20" d="M281.8124,257.7525s4.6933,3.8589,1.6347,11.8373-10.865,17.6172-10.865,17.6172-8.186-2.5438-11.3433-9.1561l10.319-16.1465a8.6883,8.6883,0,0,1,6.7557-3.9977C279.2872,257.8426,280.4451,257.7876,281.8124,257.7525Z"/><path class="cls-9" d="M281.346,213.3561s-4.636-.6158-5.8189,2.578c-.7365,1.9886,1.62,3.5355,1.62,3.5355s-2.9907,2.815,1.4731,3.6828a2.94,2.94,0,0,0,3.6091,3.3145s-.5156,3.0375,3.3882,4.0966c0,0-1.9734,5.2577,1.7386,5.3314h3.4751l-1.401,4.051s2.5954,6.2608,10.6975,6.2608a53.32,53.32,0,0,1,3.02-5.5242c.9576-1.2522,5.9662-7.66,5.9662-12.7424s-1.9553-8.0932-4.66-8.7606a11.6056,11.6056,0,0,0-3.8837-4.6449c-2.7253-1.8414-8.47-3.4835-11.7113-1.2262,0,0-2.8726-3.7674-4.8613-3.7674S281.346,211.5883,281.346,213.3561Z"/><path class="cls-19" d="M287.3566,235.8949s-.3391-5.3314,4.1539-5.3314,3.4269,9.3824-2.08,9.3824Z"/></g></svg>